<?xml version="1.0" encoding="utf-8"?>
<!-- Generator: Adobe Illustrator 23.0.1, SVG Export Plug-In . SVG Version: 6.00 Build 0)  -->
<svg version="1.1" xmlns="http://www.w3.org/2000/svg" xmlns:xlink="http://www.w3.org/1999/xlink" x="0px" y="0px"
	 viewBox="0 0 750 500" style="enable-background:new 0 0 750 500;" xml:space="preserve">
<style type="text/css">
	.st0{fill:#FFFFFF;}
	.st1{clip-path:url(#SVGID_2_);}
	.st2{fill:#4855A9;}
	.st3{fill:#1E2975;}
	.st4{fill:#D2D1FC;}
	.st5{fill:#FFA8B9;}
	.st6{fill:#A4A3FC;}
	.st7{fill:#45314A;}
	.st8{fill:#FA9778;}
	.st9{fill:#FA7C55;}
	.st10{fill:#FFD592;}
	.st11{clip-path:url(#SVGID_4_);}
	.st12{fill:#F7BB8B;}
	.st13{fill:#C25B3E;}
	.st14{fill:#EBA771;}
	.st15{fill:#DCF2F2;}
	.st16{fill:#E4F5F5;}
	.st17{fill:#450D20;}
	.st18{fill:#F28E6F;}
	.st19{fill:#ED8D5D;}
	.st20{fill:#994831;}
	.st21{fill:#DB6A3D;}
	.st22{fill:#FFC9D3;}
	.st23{fill:#CC6F49;}
	.st24{fill:#DCDCF2;}
	.st25{fill:#C4533A;}
</style>
<g id="BACKGROUND">
	<rect class="st0" width="750" height="500"/>
</g>
<g id="OBJECTS">
	<g>
		<defs>
			<rect id="SVGID_1_" width="750" height="500"/>
		</defs>
		<clipPath id="SVGID_2_">
			<use xlink:href="#SVGID_1_"  style="overflow:visible;"/>
		</clipPath>
		<g class="st1">
			<g>
				<g>
					<path class="st2" d="M102,293.2c-3.8-5.8-8.5-10.9-12.3-16.7c-7.4-11-11.6-23.8-16.8-36c-4.7-10.9-12.6-23.1-24.5-22.9
						c-10.4,0.2-18.1,10.3-20.9,20.3c-4,14.5-1.1,30.8,7.8,42.9c7.6,10.4,18.8,17.5,29.1,25.2c10.3,7.7,20.4,17,24,29.4
						c1.9,6.4,1.9,13.4,5.1,19.3c2.6,4.9,10.4,10.1,15.4,5.7c3.8-3.3,4.3-16.1,4.8-20.7C115.1,323.6,111.1,306.8,102,293.2z"/>
					<path class="st2" d="M104.7,330.5c4.2-0.8,5.4-6.3,5.4-10.6c-0.1-8.2-1.2-16.3-3.3-24.2c-3.3-12.3-9.2-24.1-9.2-36.8
						c0-5.7,1.2-11.2,2.2-16.8c2.2-12,3.5-24.3,1.4-36.2c-2.1-12-8.1-23.7-18.1-30.5c-4.3-3-9.5-5-14.7-4.6
						c-5.2,0.3-10.5,3.4-12.5,8.2c-3.3,7.8,2.3,16.3,7.4,23.1c3.6,4.9,7.2,9.8,10.6,14.8c2.6,3.8,5.2,7.8,6.7,12.2
						c3.7,10.9,0.2,22.6-0.8,34.1c-1.7,20.5,5.7,41.5,19.7,56.6L104.7,330.5z"/>
					<path class="st2" d="M46.4,177.5c0.4,4.4,0.7,8.9,1.1,13.3c0,0.5,0.1,1.1-0.2,1.5c-0.3,0.4-0.8,0.6-1.2,0.7
						c-2.4,0.5-4.9-0.9-6.3-3c-1.4-2-1.9-4.6-2-7c-0.1-1.8-0.1-3.7,0.7-5.4c0.7-1.7,2.2-3.2,4-3.4c1.8-0.3,3.9,1,4,2.9"/>
					<g>
						<g>
							<g>
								<path class="st0" d="M80,258c1.3,1.3,2.4,2.8,3.5,4.3c1.1,1.5,2,3.1,2.9,4.7c0.8,1.7,1.6,3.3,2.2,5.1
									c0.6,1.7,1.1,3.5,1.4,5.3c-0.6-1.7-1.2-3.5-2-5.1c-0.7-1.7-1.5-3.3-2.3-5c-0.8-1.6-1.7-3.2-2.7-4.8
									C82,261.1,81,259.6,80,258z"/>
							</g>
							<g>
								<path class="st0" d="M47.7,221.7c-0.4,3.1-0.5,6.2-0.4,9.2c0.2,3.1,0.6,6.1,1.3,9.2c0.7,3,1.6,6,2.6,8.9
									c1.1,2.9,2.3,5.7,3.7,8.5c5.5,11.1,13.3,20.8,20.9,30.5c3.8,4.9,7.7,9.7,11.3,14.8c1.8,2.5,3.5,5.1,5.1,7.7
									c1.6,2.7,3.1,5.4,4.5,8.2c1.3,2.8,2.6,5.6,3.6,8.6c1,2.9,1.9,5.9,2.5,8.9c0.6,3,1,6.1,1.1,9.2c0.1,3.1-0.1,6.2-0.6,9.3
									c0.4-3.1,0.5-6.2,0.4-9.2c-0.2-3.1-0.6-6.1-1.3-9.2c-0.7-3-1.6-6-2.6-8.9c-1.1-2.9-2.3-5.7-3.7-8.5
									c-5.5-11.1-13.3-20.8-21-30.5c-3.8-4.9-7.7-9.7-11.2-14.8c-1.8-2.5-3.5-5.1-5.1-7.8c-1.6-2.7-3.1-5.4-4.5-8.2
									c-1.3-2.8-2.6-5.7-3.6-8.6c-1-2.9-1.9-5.9-2.5-9c-0.6-3-1-6.1-1.1-9.2C47,227.9,47.2,224.8,47.7,221.7z"/>
							</g>
							<g>
								<path class="st0" d="M28.2,242.6c2.1,2.9,4.3,5.6,6.7,8.2c2.4,2.6,5,5,7.8,7.1c2.7,2.2,5.7,4.2,8.7,6c3,1.8,6.2,3.3,9.5,4.7
									c-3.4-1.1-6.7-2.5-9.8-4.2c-3.1-1.7-6.1-3.7-8.9-5.9c-2.8-2.2-5.4-4.7-7.7-7.3C32.2,248.5,30,245.6,28.2,242.6z"/>
							</g>
							<g>
								<path class="st0" d="M42.5,287.8c3.4,1.6,6.8,3,10.3,4.4c3.5,1.3,7,2.6,10.5,3.6c3.6,1.1,7.2,2,10.8,2.8
									c3.6,0.8,7.3,1.5,11,2c-3.7-0.3-7.4-0.8-11.1-1.5c-3.7-0.7-7.3-1.6-10.9-2.7c-3.6-1.1-7.1-2.3-10.5-3.8
									C49.1,291.2,45.7,289.6,42.5,287.8z"/>
							</g>
							<g>
								<path class="st0" d="M88.7,331.3c1.4,0.2,2.7,0.6,4,1.1c1.3,0.5,2.6,1,3.8,1.7c1.2,0.7,2.4,1.4,3.5,2.2
									c1.1,0.8,2.2,1.7,3.2,2.7c-1.2-0.7-2.3-1.5-3.5-2.2c-1.2-0.7-2.4-1.4-3.6-2c-1.2-0.6-2.4-1.2-3.7-1.8
									C91.2,332.4,89.9,331.9,88.7,331.3z"/>
							</g>
							<g>
								<path class="st0" d="M65.5,229.9c0.9,4.8,1.9,9.7,3,14.5c1.1,4.8,2.3,9.6,3.6,14.3c0.7,2.4,1.3,4.7,2,7.1
									c0.7,2.4,1.5,4.7,2,7.1c0.6,2.4,0.9,4.9,0.9,7.4c-0.1,2.5-0.6,5-1.8,7.2c1-2.3,1.4-4.7,1.4-7.2c0-2.4-0.4-4.9-1.1-7.2
									c-0.6-2.4-1.4-4.7-2.1-7.1c-0.7-2.4-1.4-4.7-2.1-7.1c-1.3-4.8-2.5-9.6-3.5-14.4C66.9,239.7,66.1,234.8,65.5,229.9z"/>
							</g>
							<g>
								<path class="st0" d="M95.5,290.1c1.1,2.7,1.9,5.4,2.5,8.2c0.7,2.8,1.1,5.6,1.4,8.5c0.3,2.8,0.4,5.7,0.3,8.6
									c-0.1,2.9-0.4,5.7-0.9,8.5c0.2-2.8,0.3-5.7,0.3-8.5c0-2.8-0.2-5.7-0.5-8.5c-0.3-2.8-0.7-5.6-1.2-8.4
									C96.9,295.6,96.3,292.9,95.5,290.1z"/>
							</g>
						</g>
						<g>
							<g>
								<path class="st0" d="M60.4,177.5c5.2,1.4,10.1,3.7,14.4,7c4.3,3.3,8,7.3,10.7,12c1.4,2.3,2.5,4.8,3.4,7.3
									c0.8,2.6,1.5,5.2,2,7.8c0.9,5.3,1.1,10.7,0.9,16.1c-0.3,10.7-1.7,21.4-0.5,32c0.1,1.3,0.3,2.6,0.5,4
									c0.3,1.3,0.4,2.6,0.8,3.9c0.6,2.6,1.4,5.1,2.5,7.6c1,2.5,2.4,4.8,3.9,7c1.6,2.2,3.5,4.1,5.5,5.8c-2.1-1.7-4-3.5-5.7-5.7
									c-1.6-2.2-3-4.5-4.1-6.9c-1.1-2.5-2-5-2.6-7.6c-0.4-1.3-0.6-2.6-0.8-3.9c-0.2-1.3-0.4-2.7-0.6-4c-0.7-5.3-0.6-10.7-0.4-16.1
									c0.2-5.4,0.6-10.7,0.7-16c0.2-5.3,0-10.7-0.9-15.9c-0.4-2.6-1.1-5.2-1.9-7.7c-0.9-2.5-2-4.9-3.3-7.2
									C79.7,187.5,70.7,180.4,60.4,177.5z"/>
							</g>
							<g>
								<path class="st0" d="M59.7,190.7c2.5,1.9,5.4,3.2,8.2,4.5c2.9,1.3,5.8,2.5,8.5,4.2c2.7,1.7,5.1,3.8,7.3,6
									c2.2,2.2,4.4,4.4,6.6,6.7c-2.4-2.1-4.7-4.2-7-6.3c-2.3-2.1-4.7-4.2-7.3-5.8c-2.6-1.7-5.5-2.9-8.3-4.3
									C64.9,194.4,62.1,192.9,59.7,190.7z"/>
							</g>
							<g>
								<path class="st0" d="M82.3,179.1c2,2.8,4,5.7,5.7,8.7c1.7,3,3.2,6.2,4.3,9.5c1,3.3,1.6,6.8,1.5,10.3c-0.1,3.5-0.9,7-2.6,10
									c1.4-3.2,2.1-6.6,2.1-10c0-3.4-0.6-6.8-1.6-10.1c-1-3.3-2.5-6.4-4.1-9.4C85.9,185,84.1,182.1,82.3,179.1z"/>
							</g>
							<g>
								<path class="st0" d="M77.2,216.6c1.5,1.9,2.8,3.9,4,6c1.2,2.1,2.2,4.3,3.2,6.5c0.9,2.2,1.7,4.5,2.5,6.7
									c0.9,2.2,2,4.4,3.9,5.8c-1-0.6-1.9-1.5-2.7-2.4c-0.7-1-1.3-2.1-1.8-3.2c-0.5-1.1-0.9-2.2-1.3-3.4c-0.4-1.1-0.9-2.2-1.4-3.3
									c-0.9-2.2-1.9-4.4-3-6.5C79.5,220.7,78.4,218.6,77.2,216.6z"/>
							</g>
							<g>
								<path class="st0" d="M98.8,230.7c0.1,3.1,0,6.3-0.4,9.4c-0.4,3.1-1.1,6.2-2,9.2c-0.9,3-2.1,5.9-3,8.9
									c-0.9,3-1.4,6.1-0.8,9.2c-0.5-1.5-0.6-3.1-0.5-4.7c0.1-1.6,0.4-3.1,0.8-4.7c0.8-3.1,2-6,2.9-9c0.9-3,1.6-6,2.1-9.1
									C98.3,236.9,98.6,233.8,98.8,230.7z"/>
							</g>
						</g>
					</g>
				</g>
				<g>
					<path class="st3" d="M90,128.4V346c0,8.2,6.2,15.3,14.4,16c0.4,0,0.7,0.1,1.1,0.1c12.2,0.4,58.7-3.3,70.7-4.3
						c3.1-0.3,6-1.5,8.3-3.6c2.9-2.7,6-7.3,6.5-15.2V136.1c0,0,1-12.5-14-15l-68.4-7.5c-4.9-0.5-9.8,0.8-13.6,3.9
						c-0.2,0.2-0.4,0.4-0.7,0.6C91.4,120.7,90,124.5,90,128.4z"/>
					<path class="st2" d="M94.6,128.9v217.2c0,8.2,6.2,15.3,14.4,16c0.4,0,0.7,0.1,1.1,0.1c12.2,0.4,58.7-3.3,70.7-4.3
						c3.1-0.3,6-1.5,8.3-3.6c2.9-2.7,6-7.3,6.5-15.2V136.7c0,0,1-12.5-14-15l-68.4-7.5c-4.9-0.5-9.8,0.8-13.6,3.9
						c-0.2,0.2-0.4,0.4-0.7,0.6C96.1,121.3,94.6,125,94.6,128.9z"/>
					<polygon class="st4" points="192.1,136.9 192.1,343.9 118.3,347.5 100.1,348.4 100.1,335 100,282.5 99.9,238.9 99.8,186 
						99.7,159.7 99.6,128.2 128.5,130.9 152.6,133.2 					"/>
					<g>
						<path class="st3" d="M156.1,126.3C156.1,126.3,156.1,126.3,156.1,126.3l-16.6-1.5c-0.6-0.1-1-0.5-0.9-1.1
							c0-0.6,0.5-0.9,1.1-0.9l16.5,1.5c0.6,0.1,1,0.5,0.9,1.1C157.1,125.9,156.6,126.3,156.1,126.3z"/>
					</g>
				</g>
			</g>
			<g>
				<path class="st4" d="M707.2-32.8c-42.1,0.6-81.1,21.7-113.3,47.7c-32.1,26.1-59.2,57.5-90.8,84.2s-69.3,49.5-111.2,52.8
					c-33.8,2.7-67.1-7.4-99.9-15.5c-31.2-7.7-69-8.3-99.9,0.3l-3.8,113.2l3.8,93.8c44.2,30.8,80.6,80.7,126.4,109.2
					c49.3,30.7,111.7,28.6,169.4,22.2c57.7-6.4,117.6-15.9,172.6,2.7c26.4,9,50.3,24,75.5,36.2c25.1,12.1,52.9,21.5,80.6,17.9
					l1-516.4C788.8-13.2,748.8-33.3,707.2-32.8z"/>
				<path class="st4" d="M486.4,96.1c10.4-9.3,18.7-21.4,21.3-35.2c0.8-4.4,0.9-9.3-1.5-13.1c-3.5-5.7-11.3-7-17.9-6
					c-13.6,2-25.3,11.5-32.5,23.3s-10.3,25.5-11.8,39.2C440.9,133.6,478.1,103.6,486.4,96.1z"/>
				<path class="st4" d="M419.7,108c0.7-1.8,1.4-3.7,2.6-5.2c1.2-1.5,3-2.7,4.9-2.7c1.8,0,3.4,1.1,4.8,2.3
					c4.5,4.2,5.9,11.2,3.9,16.9c-2,5.8-7.3,10.2-13.3,11.5c-2.8,0.6-5.8,0.6-8.6,0c-3.2-0.7-2-2.6-1-5.1
					C415.2,119.9,417.4,113.9,419.7,108z"/>
			</g>
		</g>
	</g>
	<g>
		<path class="st0" d="M499.6,140.5h84.9c-0.3-0.8-1-1.5-1.8-1.9c-1.6-0.6-3.3-0.3-5-0.1c-1.7,0.2-3.6,0.2-4.8-0.9
			c-1.3-1.2-1.4-3.4-2.9-4.6c-2.7-2.2-6.9,1.5-10.2,0.2c-3.2-1.3-3.5-6.6-6.9-7.4c-3.1-0.8-5.9,3-9.1,2.4c-1.7-0.3-2.9-2-3.5-3.7
			c-0.5-1.7-0.6-3.5-1-5.2c-1.3-5.2-6.5-9.1-11.8-9c-5.3,0.1-10.3,4.2-11.5,9.3c-0.5,2-0.4,4.2-0.8,6.2c-0.4,2.1-1.5,4.2-3.5,4.9
			c-2.7,1-5.6-0.8-8.4-0.7c-2.8,0.1-5.4,2.6-5.7,5.4C497.5,137.4,498.3,139.2,499.6,140.5z"/>
		<path class="st0" d="M399.4,234.7h76.9c-0.3-0.7-0.9-1.4-1.6-1.7c-1.4-0.6-3-0.2-4.5,0c-1.5,0.2-3.2,0.2-4.4-0.8
			c-1.2-1.1-1.3-3.1-2.6-4.2c-2.5-2-6.3,1.3-9.3,0.2c-2.9-1.2-3.2-6-6.3-6.7c-2.8-0.7-5.4,2.8-8.2,2.2c-1.6-0.3-2.7-1.8-3.2-3.3
			c-0.5-1.5-0.5-3.2-1-4.7c-1.2-4.7-5.9-8.2-10.7-8.1c-4.8,0.1-9.3,3.8-10.4,8.5c-0.4,1.9-0.3,3.8-0.7,5.6c-0.4,1.9-1.4,3.8-3.2,4.4
			c-2.4,0.9-5-0.8-7.6-0.6c-2.6,0.1-4.9,2.3-5.1,4.9C397.5,231.9,398.2,233.6,399.4,234.7z"/>
		<path class="st0" d="M712.9,120.7h-77c-3.2,0-4.7-4.2-2.1-6.1c1.3-0.9,2.9-1.4,4.5-1.2c1.8,0.2,3.5,1.2,5.2,0.6
			c2.9-1,2.8-5.5,5.3-7.2c2.6-1.7,6.2,0.5,8.2,2.3c1.1,1,2.4,1.7,3.8,2c7.4,1.6,7.8-10.1,14-11.1c4.4-0.8,7.6,4.6,12.1,5.3
			c4.2,0.7,7.9-2.8,10.2-6.3c2.8-4.3,5.1-9.4,10.6-10.3c3.1-0.5,6.2,0.5,8.6,2.5c4.8,4.1,5.8,10.8,4.4,16.7c-0.9,4-2.8,7.7-5,11.3
			C715.2,120,714.1,120.7,712.9,120.7z"/>
		<path class="st0" d="M255.1,161.7h-36c-1.5,0-2.2-2-1-2.8c0.6-0.4,1.4-0.7,2.1-0.6c0.8,0.1,1.7,0.6,2.4,0.3
			c1.3-0.5,1.3-2.6,2.5-3.4c1.2-0.8,2.9,0.2,3.8,1.1c0.5,0.5,1.1,0.8,1.8,0.9c3.5,0.7,3.6-4.7,6.5-5.2c2.1-0.4,3.6,2.1,5.6,2.5
			c2,0.3,3.7-1.3,4.7-3c1.3-2,2.4-4.4,5-4.8c1.4-0.2,2.9,0.2,4,1.2c2.3,1.9,2.7,5.1,2.1,7.8c-0.4,1.9-1.3,3.6-2.3,5.3
			C256.2,161.4,255.7,161.7,255.1,161.7z"/>
	</g>
	<g>
		<g>
			<path class="st2" d="M462.9,315.6c-2.8-4.2-6.3-8.1-9.1-12.3c-5.5-8.1-8.6-17.6-12.4-26.6c-3.4-8.1-9.3-17-18.1-16.8
				c-7.7,0.1-13.3,7.6-15.4,15c-3,10.7-0.8,22.7,5.7,31.7c5.6,7.7,13.9,12.9,21.5,18.6c7.6,5.7,15.1,12.6,17.7,21.7
				c1.4,4.7,1.4,9.9,3.7,14.2c1.9,3.6,7.7,7.4,11.3,4.2c2.8-2.5,3.2-11.8,3.5-15.3C472.6,338,469.6,325.6,462.9,315.6z"/>
			<path class="st2" d="M443.9,271C443.9,271,443.9,271,443.9,271c1.2,2.2,4.5,1.6,4.8-0.8c0.1-0.9,0.1-1.9-0.1-2.8
				c-0.6-2.3-4.1-7.2-7-5.5C438.6,263.7,442.9,269.1,443.9,271z"/>
			<path class="st2" d="M463.9,340.7c1.7-7.9,6-15.4,12.7-20c3.7-2.6,8.2-4.2,11.3-7.4c6.2-6.3,5.8-16.2,7.9-24.7
				c0.5-1.8,1.2-3.8,2.9-4.8c1.3-0.7,2.9-0.7,4.4-0.4c8,1.3,15.1,7.3,17.7,15.1c2.6,7.7,0.5,16.8-5.2,22.7
				c-6,6.2-15.1,8.5-21.8,13.9c-4.6,3.8-7.9,9.1-10.3,14.6c-1.9,4.3-3.3,8.9-6.3,12.5c-3.6,4.2-10.5,7-12.5,0.6
				C462.7,355.9,462.4,347.7,463.9,340.7z"/>
			<circle class="st2" cx="450.2" cy="274.9" r="2"/>
			<g>
				<g>
					<g>
						<path class="st0" d="M464,365.2c-3.8-3.1-6.3-7.6-7.7-12.3c-1.4-4.7-1.9-9.6-2.1-14.5c-0.3-4.9-0.4-9.8-1.2-14.5
							c-0.8-4.8-2.4-9.4-5.3-13.4c-2.8-4-6.3-7.3-9.9-10.7c-3.5-3.4-7.1-6.7-10.2-10.6c-3.1-3.8-5.7-8.1-7-12.8
							c-1.4-4.7-1.6-9.8,0-14.5c-1.5,4.7-1.1,9.8,0.3,14.4c1.4,4.6,4.1,8.8,7.1,12.6c3.1,3.7,6.6,7.1,10.2,10.4
							c3.6,3.3,7.2,6.7,10,10.8c2.9,4,4.6,8.8,5.3,13.7c0.8,4.9,0.9,9.8,1.1,14.6c0.2,4.9,0.6,9.7,1.9,14.4
							C457.9,357.5,460.2,362.1,464,365.2z"/>
					</g>
					<g>
						<path class="st0" d="M409.9,273.6c0.9,2.8,2.1,5.4,3.6,7.8c1.6,2.4,3.4,4.6,5.6,6.5c2.1,1.9,4.5,3.6,7.1,4.9
							c2.6,1.3,5.3,2.2,8.1,2.8c-2.9-0.3-5.7-1.1-8.4-2.3c-2.7-1.2-5.1-2.9-7.3-4.8c-2.2-2-4.1-4.2-5.6-6.8
							C411.5,279.2,410.4,276.5,409.9,273.6z"/>
					</g>
					<g>
						<path class="st0" d="M414.3,302c2.5,2.4,5.4,4.3,8.6,5.8c3.1,1.5,6.4,2.6,9.8,3.6c3.3,1,6.7,1.9,10,3c3.3,1.1,6.6,2.5,9.5,4.4
							c-3.1-1.6-6.4-2.8-9.7-3.8c-3.3-1-6.7-1.9-10.1-2.8c-3.3-1-6.7-2.2-9.8-3.8C419.5,306.7,416.6,304.6,414.3,302z"/>
					</g>
					<g>
						<path class="st0" d="M433.8,269.4c-0.7,3.3-0.3,6.8,0.7,10c1,3.2,2.4,6.3,4.1,9.2c1.6,3,3.4,5.9,4.8,9
							c1.4,3.1,2.6,6.4,2.9,9.8c-0.6-3.4-1.8-6.5-3.4-9.5c-1.5-3-3.3-5.9-5-8.9c-1.6-3-3.1-6.1-4-9.4c-0.4-1.7-0.7-3.4-0.8-5.1
							C433.1,272.7,433.3,271,433.8,269.4z"/>
					</g>
					<g>
						<path class="st0" d="M458,315.1c1,2.1,1.4,4.4,1.5,6.8c0.1,2.3-0.3,4.7-0.8,6.9c-0.6,2.3-1.2,4.5-2,6.6
							c-0.7,2.2-1.5,4.4-2.1,6.6c0.3-2.3,0.9-4.5,1.6-6.7c0.6-2.2,1.3-4.4,1.8-6.6c0.5-2.2,0.9-4.5,1-6.8
							C459,319.6,458.7,317.3,458,315.1z"/>
					</g>
				</g>
				<g>
					<g>
						<path class="st0" d="M466.1,365.8c-1.8-2.8-3-5.9-3.8-9.1c-0.8-3.2-1-6.6-0.7-9.9c0.3-3.3,1-6.6,2.2-9.7
							c1.2-3.1,2.9-6,5.1-8.4c-1.9,2.7-3.5,5.6-4.6,8.6c-1.1,3.1-1.8,6.3-2,9.5c-0.3,3.2-0.1,6.5,0.6,9.7
							C463.5,359.7,464.5,362.9,466.1,365.8z"/>
					</g>
					<g>
						<path class="st0" d="M470.5,366.1c-1.7-3.6-2.2-7.6-1.7-11.6c0.5-3.9,1.8-7.7,3.7-11.2c3.8-7,9.7-12.5,15.1-18.1
							c2.8-2.8,5.5-5.6,7.9-8.7c2.4-3.1,4.5-6.4,6-10c1.5-3.6,2.2-7.5,2-11.4c-0.2-3.9-1.4-7.8-3.8-10.9c2.6,3,3.9,6.9,4.2,10.9
							c0.3,4-0.4,8-1.8,11.6c-1.4,3.7-3.6,7.1-6,10.2c-2.4,3.1-5.1,6-7.9,8.8c-5.5,5.6-11.3,11-15.1,17.8c-1.9,3.4-3.3,7.1-3.8,11
							C468.6,358.4,468.9,362.5,470.5,366.1z"/>
					</g>
					<g>
						<path class="st0" d="M518.6,299.5c-2.2,1.6-4.1,3.6-5.8,5.7c-1.7,2.1-3.4,4.3-5.2,6.4c-1.8,2.1-3.8,4-6.2,5.5
							c-1.2,0.7-2.4,1.3-3.8,1.8c-1.3,0.4-2.7,0.6-4.1,0.6c2.7-0.2,5.3-1.3,7.5-2.8c2.2-1.5,4.2-3.4,5.9-5.5c1.8-2,3.5-4.2,5.3-6.3
							C514.2,302.8,516.2,300.8,518.6,299.5z"/>
					</g>
					<g>
						<path class="st0" d="M502.5,326.1c-3,0.4-5.8,1.8-8.2,3.6c-2.4,1.8-4.5,4-6.6,6.2c-2.1,2.2-4.3,4.4-6.9,6
							c-1.3,0.8-2.7,1.5-4.2,2c-1.5,0.5-3,0.7-4.5,0.6c3.1-0.1,5.9-1.4,8.4-3.1c2.5-1.7,4.6-3.8,6.7-6c2.1-2.1,4.2-4.4,6.8-6.1
							c1.3-0.9,2.6-1.6,4-2.2C499.4,326.5,500.9,326.2,502.5,326.1z"/>
					</g>
					<g>
						<path class="st0" d="M474.4,324.8c-0.9,2.3-1.9,4.6-2.7,6.9c-0.8,2.3-1.6,4.7-2.3,7.1c-0.7,2.4-1.4,4.8-1.8,7.2
							c-0.2,1.2-0.2,2.4,0,3.6c0.2,1.2,0.7,2.3,1.6,3.3l0,0l0.1-0.4l0,0.4l0,0.1l0,0c-1-0.8-1.6-2-1.9-3.2c-0.3-1.2-0.3-2.5-0.2-3.8
							c0.1-1.3,0.4-2.5,0.7-3.7c0.3-1.2,0.6-2.4,1-3.6c0.7-2.4,1.5-4.7,2.5-7C472.1,329.2,473.2,326.9,474.4,324.8z"/>
					</g>
				</g>
			</g>
		</g>
		<g>
			<path class="st2" d="M647.1,338.4c4.7-8.7,12.3-15.4,19.7-22.1c7.4-6.6,14.8-13.6,18.9-22.6c1.4-3.1,2.5-6.5,4.4-9.3
				c2-2.8,5.2-5.1,8.6-4.8c4.2,0.4,7,4.4,8.7,8.3c3.3,7.5,4.3,16.3,1.1,23.8c-4.2,9.8-14.4,15.3-23.8,20.3
				c-11.6,6.1-23.9,13.3-29,25.5c-3,7.2-8,14.7-11.8,3.3C641.5,353.5,643.6,344.8,647.1,338.4z"/>
			<path class="st2" d="M641.5,331.4c1.7-9.4,5.8-18.1,8.8-27.2c3-9.1,4.9-18.9,2.3-28.1c-1.7-5.9-5.2-11.1-8.1-16.5
				c-1.5-2.8-2.9-6.2-1.5-9c0.8-1.5,2.2-2.5,3.8-3.2c6.7-2.8,14.4,1.3,19.2,6.7c5.2,5.9,8.4,13.4,9,21.2c1.3,15.4-7.2,29.7-13,44.1
				c-3,7.4-5.3,15.2-7,23c-1.4,6.5-0.5,16.1-4.2,21.7c-4.8,7.4-7.4-5.4-8.4-9.3C640.4,347.3,640.1,339.2,641.5,331.4z"/>
			<path class="st2" d="M693.9,277.3c0-0.4-0.1-0.8-0.3-1.2c-0.3-0.4-0.7-0.5-1.1-0.6c-1.2-0.2-2.3,0.6-3,1.5
				c-0.5,0.8-1.1,2.3-0.4,3.2c0.8,0.9,1.8,0.4,2.7-0.1C693,279.4,693.9,278.9,693.9,277.3z"/>
			<circle class="st2" cx="690.7" cy="273.4" r="1.2"/>
			<g>
				<g>
					<g>
						<path class="st0" d="M661.5,321.7c-2.2,2.5-4.3,5.1-6.2,7.8c-1.9,2.7-3.6,5.5-5.1,8.5c-1.5,2.9-2.8,6-3.9,9.1
							c-1.1,3.1-2,6.3-2.7,9.6c0.4-3.3,1.2-6.6,2.2-9.8c1-3.2,2.3-6.3,3.8-9.3c1.6-3,3.3-5.8,5.3-8.5
							C656.8,326.5,659,324,661.5,321.7z"/>
					</g>
					<g>
						<path class="st0" d="M644.6,350c-0.1-4.4,0.1-8.8,0.5-13.1c0.4-4.4,1.1-8.7,2.1-13c0.9-4.3,2.1-8.5,3.6-12.7
							c1.4-4.2,3.2-8.2,4.7-12.3c1.6-4.1,3.1-8.2,3.9-12.5c0.9-4.3,1-8.7,0.5-13c-0.6-4.3-1.9-8.5-3.8-12.4c-1-2-2.1-3.8-3.4-5.6
							c-1.3-1.8-2.7-3.4-4.3-5c1.6,1.5,3.1,3.1,4.4,4.9c1.3,1.8,2.5,3.6,3.5,5.6c2,3.9,3.4,8.2,4.1,12.5c0.7,4.4,0.5,8.9-0.4,13.2
							c-0.9,4.3-2.3,8.5-3.9,12.6c-1.6,4.1-3.4,8.1-4.8,12.2c-1.5,4.1-2.7,8.3-3.7,12.6C645.7,332.5,644.6,341.2,644.6,350z"/>
					</g>
					<g>
						<path class="st0" d="M660.8,252c0.9,2.8,1.7,5.6,2.3,8.4c0.6,2.8,1.1,5.7,1.3,8.6c0.1,2.9-0.1,5.9-0.8,8.7
							c-0.7,2.8-1.8,5.6-3.5,7.9c1.5-2.5,2.4-5.3,3-8.1c0.5-2.8,0.7-5.7,0.6-8.6c-0.1-2.9-0.5-5.7-1.1-8.6
							C662.1,257.6,661.4,254.8,660.8,252z"/>
					</g>
					<g>
						<path class="st0" d="M646.9,315.8c0.2,1.2,0.3,2.3,0.4,3.5c0.1,1.2,0.2,2.3,0.3,3.5c-0.6-1.1-0.9-2.2-1-3.4
							C646.4,318.1,646.5,316.9,646.9,315.8z"/>
					</g>
				</g>
				<g>
					<g>
						<path class="st0" d="M648.4,364.4c-0.2-2-0.2-4,0-6.1c0.2-2,0.6-4,1.2-6c0.6-1.9,1.3-3.8,2.2-5.7c0.9-1.8,1.8-3.6,2.9-5.4
							c4.3-6.9,10.1-12.7,15.9-18.3c5.9-5.6,11.8-11,16.7-17.4c1.2-1.6,2.4-3.3,3.4-5c1-1.7,2-3.5,2.8-5.3c0.8-1.8,1.5-3.7,2.1-5.7
							c0.5-1.9,0.9-3.9,1.1-5.9c-0.1,2-0.4,4-0.9,6c-0.5,2-1.2,3.9-1.9,5.8c-1.6,3.7-3.7,7.2-6.1,10.5c-4.8,6.6-10.8,12.1-16.6,17.6
							c-5.8,5.5-11.6,11.2-16,18c-1.1,1.7-2.1,3.4-2.9,5.3c-0.9,1.8-1.6,3.7-2.2,5.6c-0.6,1.9-1.1,3.9-1.3,5.9
							C648.4,360.3,648.3,362.4,648.4,364.4z"/>
					</g>
					<g>
						<path class="st0" d="M688.7,292.5c-0.3,1.8-0.8,3.6-1.3,5.4c-0.5,1.8-1.1,3.5-1.8,5.2c-0.7,1.7-1.4,3.4-2.3,5.1
							c-0.8,1.7-1.7,3.3-2.7,4.8l2.2-5.1c0.7-1.7,1.4-3.4,2.1-5.1c0.7-1.7,1.3-3.4,1.9-5.2L688.7,292.5z"/>
					</g>
					<g>
						<path class="st0" d="M705.7,295c-1,3.4-2.6,6.7-4.7,9.7c-2,3-4.6,5.6-7.4,7.9c-2.9,2.2-6,4-9.4,5.3c-3.4,1.3-6.9,2-10.5,2.2
							c3.6-0.5,7-1.4,10.3-2.7c3.3-1.4,6.4-3.1,9.2-5.3c2.8-2.2,5.3-4.8,7.4-7.6C702.7,301.5,704.4,298.4,705.7,295z"/>
					</g>
					<g>
						<path class="st0" d="M689.5,324.4c-3,1.1-5.9,2.2-8.9,3.4c-2.9,1.2-5.8,2.4-8.7,3.8c-2.9,1.3-5.7,2.8-8.4,4.3
							c-2.8,1.5-5.5,3.1-8.2,4.7c2.6-1.9,5.2-3.6,8-5.2c2.7-1.6,5.6-3.1,8.4-4.4c2.9-1.3,5.8-2.6,8.8-3.7
							C683.4,326.2,686.5,325.2,689.5,324.4z"/>
					</g>
				</g>
			</g>
		</g>
	</g>
	<g>
		<g>
			<path class="st0" d="M557.9,165.6h-24.5c-1,0-1.9,0.8-1.9,1.9v17.1c0,1,0.8,1.9,1.9,1.9h9.3l2.9,5l2.9-5h9.3c1,0,1.9-0.8,1.9-1.9
				v-17.1C559.8,166.5,558.9,165.6,557.9,165.6z"/>
			<g>
				<g>
					<path class="st5" d="M545.7,172.9c0.9-1.6,2.2-2.2,3.9-1.9c1.6,0.2,2.8,1.6,2.9,3.3c0.1,1.5-0.5,2.8-1.4,4
						c-1.3,1.8-3.1,3.2-5.1,4.3c-0.2,0.1-0.6,0.1-0.7,0c-2.2-1.3-4.3-2.8-5.6-5.1c-1-1.7-1.2-3.4-0.1-5.1c1.3-2.1,4.6-2,5.9,0.1
						C545.5,172.6,545.5,172.7,545.7,172.9z"/>
				</g>
			</g>
		</g>
		<g>
			<path class="st0" d="M219.7,181.8l-18-3.6c-0.8-0.2-1.5,0.3-1.7,1.1l-2.5,12.6c-0.2,0.8,0.3,1.5,1.1,1.7l6.9,1.4l1.4,4.1l2.9-3.3
				l6.9,1.4c0.8,0.2,1.5-0.3,1.7-1.1l2.5-12.6C220.9,182.7,220.4,182,219.7,181.8z"/>
			<g>
				<g>
					<path class="st5" d="M209.6,185.4c0.9-1.1,2-1.3,3.2-0.8c1.2,0.4,1.8,1.6,1.7,2.9c-0.1,1.1-0.8,2-1.6,2.7
						c-1.3,1.2-2.8,1.9-4.4,2.4c-0.2,0.1-0.4,0-0.5-0.1c-1.4-1.3-2.7-2.7-3.4-4.6c-0.5-1.4-0.4-2.7,0.6-3.8c1.3-1.3,3.7-0.8,4.3,0.9
						C209.5,185.2,209.5,185.2,209.6,185.4z"/>
				</g>
			</g>
		</g>
		<g>
			<path class="st0" d="M336.2,156.9c-8.7,0-15.8,7.1-15.8,15.8c0,4,1.5,7.6,3.9,10.4c-0.5,1.2-1.8,3.8-3.9,5.1c0,0,5.6-0.2,8.3-1.6
				c2.2,1.2,4.8,1.9,7.6,1.9c8.7,0,15.8-7.1,15.8-15.8C352,164,344.9,156.9,336.2,156.9z"/>
			<g>
				<g>
					<circle class="st2" cx="328.7" cy="172.8" r="1.6"/>
					<circle class="st2" cx="336.2" cy="172.8" r="1.6"/>
					<circle class="st2" cx="343.6" cy="172.8" r="1.6"/>
				</g>
			</g>
		</g>
	</g>
	<g>
		<g>
			<g>
				<path class="st0" d="M336.5,350c-1-0.8-2.5-0.7-3.4,0.3l-3.1,3.1h-2.7H281h-2.7l-3.1-3.1c-0.9-0.9-2.4-1.1-3.4-0.3
					c-1.2,1-1.2,2.7-0.2,3.7l4,4c0.4,0.4,0.9,0.6,1.5,0.6h3.9h46.3h3.9c0.6,0,1.1-0.2,1.5-0.6l4-4
					C337.7,352.6,337.7,350.9,336.5,350z"/>
				<g>
					<g>
						<circle class="st6" cx="285.3" cy="362.5" r="4.1"/>
						<path class="st7" d="M286.7,362.5c0,0.7-0.6,1.3-1.3,1.3c-0.7,0-1.3-0.6-1.3-1.3c0-0.7,0.6-1.3,1.3-1.3
							C286.1,361.1,286.7,361.7,286.7,362.5z"/>
					</g>
					<g>
						<circle class="st6" cx="323" cy="362.5" r="4.1"/>
						<path class="st7" d="M324.3,362.5c0,0.7-0.6,1.3-1.3,1.3c-0.7,0-1.3-0.6-1.3-1.3c0-0.7,0.6-1.3,1.3-1.3
							C323.7,361.1,324.3,361.7,324.3,362.5z"/>
					</g>
				</g>
			</g>
			<g>
				<g>
					<g>
						<g>
							<path class="st8" d="M290.4,342.3l0.7,5.1l2.2,2.8l6.4-2.2c0,0,0.1-2,0.2-5.3C296.8,342.6,293.6,342.4,290.4,342.3z"/>
						</g>
						<path class="st7" d="M311.1,353.3c0.4-0.6,0.3-1.5-0.2-2.1c-0.5-0.6-1.2-0.9-2-1c-0.7-0.1-1.5-0.1-2.3-0.2
							c-2.1-0.2-4.2-1.2-5.9-2.6c0.3-0.7,0.6-1.6,0.3-2.3c-0.3-0.6-1-1-1.6-1.1c-1.3-0.3-2.6,0.1-3.6,0.9c-1,0.8-1.7,2.2-1.7,3.5
							c-0.5,0.1-0.9-0.3-1.2-0.6c-0.3-0.3-0.6-0.7-1-0.9c-0.5-0.2-1.1-0.1-1.6,0.1c-0.2,0.1-0.4,0.1-0.5,0.3
							c-0.1,0.1-0.2,0.4-0.1,0.5c0.5,1.3,0.4,2.7,0.1,4.1c-0.1,0.5-0.3,1.1,0,1.6L311.1,353.3z"/>
					</g>
					<g>
						<g>
							<path class="st8" d="M234.6,322.2c-2.1,1.3-3.4,2.2-3.8,2.4c-0.1,0-0.1,0.1-0.1,0.1l-1.2,5.2l5.2,2.9l0.3,0.5l5.2-2.6
								C238.2,328,236.2,325.3,234.6,322.2z"/>
						</g>
						<path class="st7" d="M234.3,345.6c0.2,0.5,0.8,0.7,1.3,0.4c0.4-0.2,0.7-0.5,0.8-0.9c0.3-0.7,0.3-1.5,0.1-2.2
							c-0.2-0.7-0.5-1.4-0.8-2.1c-0.8-2-0.8-4.3-0.3-6.4c0.8,0,1.7-0.1,2.2-0.8c0.4-0.5,0.4-1.3,0.3-1.9c-0.3-1.3-1.2-2.3-2.4-2.9
							c-1.2-0.5-2.8-0.6-3.9,0c-0.3-0.4-0.2-0.9,0-1.3c0.2-0.4,0.4-0.9,0.4-1.3c0-0.5-0.4-1-0.8-1.4c-0.1-0.1-0.3-0.3-0.5-0.3
							c-0.2-0.1-0.4,0-0.5,0.1c-0.9,1-2.3,1.5-3.6,1.9c-0.1,0-0.2,0.1-0.4,0.1c-0.6,0.2-0.9,0.9-0.6,1.5L234.3,345.6z"/>
					</g>
					<g>
						<path class="st5" d="M300.7,305.1c-0.2,20.3,0.4,38.3,0.4,38.3l-11.2,2.9l-8-77.1l-6.1-20.8l1.5-2.5l0.5-0.8l19.4,4.7l1.4,0.3
							l0.3,0.1c0,0,1.5,13,1.9,17.1C300.9,269.2,300.8,286.9,300.7,305.1z"/>
						<g>
							<path class="st5" d="M277.7,245.1c0,0-11.2,8.9-13.2,21.2c-1.9,12.3,3.3,33.7,3.3,33.7l-35.5,23.3l8,8.8
								c0,0,39.9-18.1,44.3-24.5c4.3-6.4-2.2-50.9-2.2-50.9L277.7,245.1z"/>
							<g>
								<g>
									<path class="st7" d="M285.7,304.7c0.1-5.7,0.1-11.5-0.1-17.2c-0.1-2.9-0.2-5.7-0.4-8.6c-0.3-2.8-0.5-5.7-1.1-8.5l-0.1-0.2
										l0.2-0.1l3.9-2.2L288,268l1.3-8.4c0.4-2.8,0.9-5.6,1.4-8.4c-0.3,2.8-0.6,5.6-1,8.5l-1.1,8.5l0,0.2l-0.1,0.1l-3.9,2.3
										l0.2-0.4c0.6,2.8,1,5.7,1.2,8.6c0.2,2.9,0.3,5.8,0.3,8.6c0,2.9,0,5.8-0.1,8.6C286,298.9,285.9,301.8,285.7,304.7z"/>
								</g>
								<g>
									<path class="st7" d="M283,250.3c1.3,0.4,2.5,0.8,3.8,1.1c1.3,0.3,2.5,0.6,3.8,0.8c1.3,0.2,2.6,0.3,3.9,0.4c0.6,0,1.3,0,2,0
										c0.7,0,1.3-0.1,2-0.1c-1.3,0.4-2.6,0.6-3.9,0.7c-1.3,0.1-2.7,0-4-0.2c-1.3-0.2-2.6-0.5-3.9-1
										C285.4,251.5,284.2,251,283,250.3z"/>
								</g>
								<g>
									<path class="st7" d="M284.4,270.3c0.2-1.7,0.5-3.3,0.8-5c0.3-1.6,0.6-3.3,1-4.9c0.4-1.6,0.7-3.3,1.1-4.9
										c0.4-1.6,0.8-3.2,1.3-4.8c-0.2,1.7-0.5,3.3-0.8,5c-0.3,1.6-0.6,3.3-1,4.9c-0.4,1.6-0.7,3.3-1.1,4.9
										C285.3,267.1,284.9,268.7,284.4,270.3z"/>
								</g>
							</g>
						</g>
					</g>
				</g>
				<g>
					<g>
						<g>
							<path class="st8" d="M284.8,215.3c2.1-4.2,1.3-13.3,1.2-14.5c0,0,0-0.1,0-0.1l11.1,7.4c-0.2,0.3-0.4,0.7-0.5,1.2l0,0
								c-0.2,1-0.1,2.4,0,3.6c0.2,1.8,0.8,4,0.8,4l-5.9,2.6L284.8,215.3z"/>
							<path class="st9" d="M296.5,212.9c-6.4,0.3-9-7.5-9-7.8c1,1.9,2.6,3,4.2,3.6c2,0.7,4,0.7,4.8,0.6c0,0,0,0,0,0
								C296.4,210.4,296.4,211.7,296.5,212.9z"/>
						</g>
						<g>
							<path class="st10" d="M305.2,230.9c0,0.6-0.1,1.2-0.2,1.8c-0.7,2.9-2.7,5.7-2.7,5.7l-0.1,0.4l-3.1,9.7l-0.5,1.6l-0.1,0.4
								c0,0-0.5,0.2-1.5,0.4c-2.9,0.5-9.7,0.8-19.7-5c-0.1-0.1-0.3-0.2-0.4-0.2c0,0,0.1-0.5,0.1-1.3c0.1-2.1,0.2-6.6-1-11.3
								c-0.3-1.1-0.6-2.1-1-3.2c-3-7.5,2.6-14.1,5.7-14.6c3-0.5,4.4-0.9,4.4-0.9s7.2,4.8,12.5,1.8c0,0,1.9,1.9,3.9,3.2
								c1.4,0.9,2.3,2.3,2.7,4C304.5,225.7,305.2,229,305.2,230.9z"/>
							<path class="st6" d="M302.2,238.8l-3.1,9.7c-4.8-0.2-14.8-2-22.1-4.2c0.1-2.1,0.2-6.6-1-11.3
								C280.3,234.7,293,239.2,302.2,238.8z"/>
							<g>
								<g>
									<path class="st7" d="M287.2,217.7c1.6,0.7,3.2,1.2,4.8,1.2c1.6,0.1,3.3-0.2,4.9-0.9c-1.3,1.2-3.1,1.7-4.9,1.6
										C290.3,219.6,288.5,218.9,287.2,217.7z"/>
								</g>
								<g>
									<path class="st7" d="M288.4,244.1c2-1.5,3.9-3.1,5.6-4.8c1.8-1.7,3.4-3.6,5-5.5c-1.1,2.3-2.6,4.3-4.4,6
										C292.7,241.5,290.6,243,288.4,244.1z"/>
								</g>
								<g>
									<path class="st7" d="M294,242.7c0.5-0.8,1-1.5,1.6-2.1c0.6-0.7,1.2-1.3,1.9-1.9c-0.2,0.9-0.8,1.7-1.3,2.4
										C295.6,241.8,294.9,242.4,294,242.7z"/>
								</g>
							</g>
						</g>
					</g>
					<g>
						<g>
							<path class="st8" d="M244.8,247.9c-2.8,4.1-5.2,8.5-7,13.2l0,0c-1.7,0.9-5.6,3.3-6.7,4.9c-0.1,0.1,0,0.3,0.2,0.3
								c0.3,0,1.1-0.2,2.5-1.2c0,0-2.4,2.8-2.3,3.4c0.1,0.7,3.5-2.4,3.5-2.4s-2.3,3.4-2,3.9c0.3,0.5,3.4-2.9,3.4-2.9
								s-2.2,3.6-1.9,3.8c0.8,0.3,4-4.7,4.5-4.3c0.4,0.3,0.2,1.8-0.1,2.5c-0.1,0.2,0,0.3,0.2,0.3c0.3,0.1,0.8,0,1.1-0.7
								c0.4-1,1.2-2.9,1.2-5.4c0.1-0.1,2.4-2.3,6-5.7C246.3,254.5,245.5,251.2,244.8,247.9z"/>
							<path class="st0" d="M285,214.4c0,0-9.3-1.8-23.5,12c-14.2,13.8-24.3,22.7-24.3,22.7s3.3,11.2,8,14c0,0,12.7-13.5,15.3-15.3
								c2.7-1.8,15.2-14.7,15.2-14.7S287,220.6,285,214.4z"/>
						</g>
						<g>
							<path class="st0" d="M271.1,232.1c0,0,1.8,11.5,0.8,15.5s-17,18-9.8,52.2c0,0,9,1.8,18,1.2c0,0,0-48.5,3.5-52.5
								s8.2-25.3,1.3-34.2C285,214.4,271.4,221.1,271.1,232.1z"/>
							<g>
								<g>
									<path class="st7" d="M271.9,237.1c0.6-0.8,1.4-1.4,2.2-2c0.8-0.6,1.7-1.1,2.6-1.4c-0.6,0.8-1.4,1.4-2.2,2
										C273.7,236.3,272.9,236.8,271.9,237.1z"/>
								</g>
								<g>
									<path class="st7" d="M274,236.2c1,2.5,1.2,5.3,0.8,8c-0.4,2.7-1.2,5.3-2.3,7.8c-2.2,5-5.2,9.6-6.9,14.7
										c-1.9,5-3,10.4-3.4,15.7c-0.2,2.7-0.2,5.4,0,8.1c0.2,2.7,0.6,5.4,1.2,8c-0.7-2.6-1.2-5.3-1.5-8c-0.3-2.7-0.4-5.4-0.2-8.1
										c0.2-5.4,1.4-10.8,3.3-16c1.9-5.1,4.9-9.7,7.1-14.6c1.1-2.4,2-5,2.4-7.7C274.9,241.5,274.8,238.7,274,236.2z"/>
								</g>
							</g>
						</g>
					</g>
					<g>
						<g>
							<path class="st8" d="M345.7,265.2c0.3-0.4,1.8-0.2,2.5,0.1c0.2,0.1,0.3,0,0.3-0.2c0.1-0.3,0-0.8-0.7-1.1
								c-1-0.4-2.8-1.2-5.3-1.2c-1.3-1.3-3.6-3.7-6.4-6.7c-1.2,2.3-2.5,4.7-3.7,7.1c2.7,1.5,5.5,2.9,8.3,4.1c1.1,1.9,3,4.9,4.4,5.9
								c0.1,0.1,0.3,0,0.3-0.2c0-0.3-0.2-1.1-1.2-2.5c0,0,2.8,2.4,3.4,2.3c0.7-0.1-2.5-3.5-2.5-3.5s3.4,2.3,3.9,2
								c0.5-0.3-2.9-3.4-2.9-3.4s3.6,2.2,3.8,1.9C350.4,268.9,345.3,265.7,345.7,265.2z"/>
							<path class="st0" d="M307.1,222.7c-1.1-1.3-2.2-2.1-3-2.5c0.1,0.2,0.1,0.4,0.2,0.7c1.1,6.2,1.4,13,0.6,19.6
								c8.3,11.8,29.4,25.8,29.4,25.8c2.8-2,6.2-6.9,6.2-6.9C336.5,255.6,309.4,225.4,307.1,222.7z"/>
						</g>
						<g>
							<path class="st0" d="M315.7,301.9l-5-20.8c-2.6-19.9-3.5-45-3.5-45l-0.8-1.3v-3.5c0,0,8.7-7-8.8-15.1c0,0,5.7,6.4,5.2,16.9
								c-0.1,2.2-0.4,4.3-0.7,6.4l-3.5,10.7c0,0,0.5,6.9,0.6,8.2c0.7,5.7,1.5,47,1.5,47s8.6,0,13.4-0.9
								C315.2,304.1,315.9,303,315.7,301.9z"/>
							<g>
								<path class="st7" d="M306.9,243.7l-0.4-6.7c-0.1-2.2-0.4-4.4-0.5-6.7c0.7,2.1,1.1,4.4,1.2,6.6
									C307.4,239.2,307.4,241.5,306.9,243.7z"/>
							</g>
						</g>
					</g>
				</g>
				<g>
					<g>
						<g>
							<path class="st8" d="M302.7,189.2c-1.2-4-8.2-6.1-13.5-2.2c-2.5,1.8-3.2,5.4-3.4,8.8c-0.1-0.1-0.2-0.1-0.3-0.1
								c-1-0.3-2.1,0.3-2.4,1.3c-0.3,0.7-0.2,1.6,0.2,2.3c0.3,0.6,0.9,1.1,1.5,1.4c0.2,0.1,0.8,0.2,1.3,0.2c0.3,2.2,1.3,4.3,2.9,5.9
								c2,2,4.8,2.9,7.6,2.6c2.2-0.3,5.5-1.4,6.5-3.6c0.2-0.6,0.3-1.2,0.4-1.8c0-0.1,0-0.3,0-0.4c0.1-1.4,0.2-2.8,0.3-4.3
								C303.7,195.9,303.6,192.3,302.7,189.2z"/>
							<g>
								<g>
									<path class="st9" d="M303.6,199.3c-0.1,1.5-0.2,2.9-0.3,4.3c-0.2,0-0.4,0-0.6,0c-1.2-0.1-2.1-1.2-2-2.4
										c0.1-1.2,1.2-2.1,2.4-2C303.3,199.2,303.4,199.3,303.6,199.3z"/>
									<path class="st9" d="M289.7,200.4c-0.1,1.2,0.8,2.3,2,2.4c1.2,0.1,2.3-0.8,2.4-2c0.1-1.2-0.8-2.3-2-2.4
										C290.9,198.2,289.8,199.1,289.7,200.4z"/>
								</g>
								<g>
									<g>
										<g>
											<path class="st7" d="M299.9,196.9c-0.1,0.7,0.2,1.3,0.5,1.4s0.7-0.5,0.7-1.3c0.1-0.7-0.2-1.3-0.5-1.4
												C300.3,195.6,299.9,196.1,299.9,196.9z"/>
											<path class="st7" d="M301.9,195.3c-0.1,0.2-0.3,0.4-0.5,0.5c-0.2,0.1-0.4,0.3-0.7,0.3l0,0c-0.1,0-0.2-0.1-0.3-0.2
												c0-0.1,0.1-0.2,0.2-0.3c0,0,0,0,0.1,0c0.4,0,0.8-0.1,1.1-0.4l0,0C301.9,195.2,301.9,195.2,301.9,195.3
												C302,195.2,302,195.3,301.9,195.3z"/>
										</g>
										<g>
											<path class="st7" d="M295.6,196.5c-0.1,0.7-0.4,1.3-0.7,1.3c-0.4,0-0.6-0.6-0.5-1.4c0.1-0.7,0.4-1.3,0.7-1.3
												C295.4,195.2,295.7,195.8,295.6,196.5z"/>
											<path class="st7" d="M293.9,194.6c0.2,0.3,0.6,0.6,1,0.6c0.1,0,0.2,0.1,0.2,0.2s-0.1,0.2-0.2,0.2c0,0,0,0-0.1,0l0,0
												c-0.3-0.1-0.5-0.2-0.6-0.4c-0.2-0.2-0.3-0.4-0.4-0.6C293.8,194.6,293.8,194.6,293.9,194.6
												C293.9,194.5,293.9,194.5,293.9,194.6L293.9,194.6z"/>
										</g>
									</g>
								</g>
								<g>
									<g>
										<path class="st7" d="M299.8,200.8c-0.3,0.4-0.6,0.8-1,1c-0.4,0.3-0.9,0.4-1.5,0.4c-0.5-0.1-1-0.3-1.4-0.6
											c-0.2-0.2-0.3-0.4-0.5-0.5c-0.1-0.2-0.3-0.4-0.4-0.6c0.2,0.2,0.4,0.3,0.5,0.5c0.2,0.1,0.4,0.3,0.6,0.4
											c0.4,0.3,0.8,0.4,1.2,0.5c0.4,0,0.9-0.1,1.3-0.2C299,201.4,299.4,201.1,299.8,200.8z"/>
										<path class="st7" d="M297.9,203c-0.2,0.1-0.4,0.2-0.7,0.2c-0.2,0-0.5-0.1-0.7-0.3c0.2,0.1,0.4,0.1,0.7,0.1
											C297.5,203.1,297.7,203,297.9,203z"/>
									</g>
								</g>
								<g>
									<g>
										<path class="st7" d="M296.5,192c-0.3-0.3-0.6-0.4-1-0.4c-0.4,0-0.7,0-1.1,0.1c-0.4,0.1-0.7,0.2-1,0.5
											c-0.3,0.2-0.5,0.5-0.7,0.8c-0.1,0.1-0.1,0.3,0.1,0.4c0.1,0.1,0.3,0.1,0.4,0l0,0c0.2-0.2,0.4-0.3,0.7-0.5
											c0.2-0.1,0.5-0.2,0.7-0.2c0.2,0,0.5,0,0.8,0c0.3,0,0.5,0.1,0.8,0l0.1,0c0.2,0,0.3-0.2,0.3-0.4
											C296.6,192.1,296.6,192.1,296.5,192z"/>
										<path class="st7" d="M299.7,192.3c0.3-0.2,0.7-0.3,1-0.3c0.4,0,0.7,0.1,1,0.2c0.3,0.1,0.6,0.4,0.9,0.6
											c0.3,0.2,0.4,0.6,0.6,0.9c0.1,0.2,0,0.3-0.2,0.4c-0.1,0.1-0.3,0-0.4-0.1l0,0c-0.2-0.2-0.4-0.4-0.6-0.6
											c-0.2-0.2-0.4-0.3-0.7-0.3c-0.2-0.1-0.5-0.1-0.7-0.1c-0.3,0-0.5,0-0.8-0.1l-0.1,0c-0.2-0.1-0.3-0.2-0.2-0.4
											C299.6,192.4,299.6,192.3,299.7,192.3z"/>
									</g>
								</g>
								<path class="st7" d="M298,194.7c0.1,0.5,0.1,1,0.2,1.5c0.1,0.5,0.1,1,0.2,1.4c0,0.1,0,0.2,0.1,0.3c0,0.1,0.1,0.3,0.1,0.4
									c0,0.3-0.2,0.6-0.5,0.7c-0.3,0.1-0.6,0.1-0.8,0c-0.2-0.1-0.5-0.3-0.6-0.4c0.4,0.2,1,0.4,1.3,0.2c0.2-0.1,0.3-0.3,0.3-0.4
									c0-0.1,0-0.2-0.1-0.3c0-0.1-0.1-0.3-0.1-0.4c-0.1-0.5-0.1-1-0.1-1.5C297.9,195.7,297.9,195.2,298,194.7z"/>
								<path class="st7" d="M283.8,197.7c0-0.3,0.1-0.6,0.4-0.8c0.3-0.2,0.7-0.2,1,0c0.3,0.1,0.6,0.4,0.7,0.6
									c0.2,0.3,0.3,0.6,0.4,0.9c0,0.1,0,0.2-0.1,0.3c-0.1,0-0.2,0-0.2-0.1l0,0c-0.2-0.2-0.4-0.5-0.7-0.6c-0.1,0-0.2,0-0.3,0
									c-0.1,0.1-0.2,0.2-0.2,0.3c-0.1,0.3-0.2,0.6,0,0.8c0.2,0.2,0.6,0.2,1,0.1c-0.3,0.1-0.7,0.2-1.1,0.1
									c-0.2-0.1-0.3-0.3-0.3-0.5c0-0.2,0-0.4,0.1-0.6c0.1-0.2,0.2-0.4,0.4-0.5c0.2-0.1,0.5-0.2,0.7-0.1c0.4,0.2,0.7,0.4,0.9,0.7
									l-0.4,0.2c-0.2-0.5-0.4-1.1-0.9-1.3c-0.2-0.1-0.5-0.2-0.7-0.1C284,197.2,283.9,197.4,283.8,197.7z"/>
							</g>
						</g>
						<path class="st7" d="M310.9,210.6c-0.1-1.5-0.9-2.8-1.7-4s-1.9-2.3-2.6-3.6c-0.8-1.3-0.8-2.8-1.2-4.2
							c-0.6-1.9-0.4-3.9-0.4-5.9c0-2-0.7-4.1-1.9-5.8c-0.9-1.3-1.8-2.1-3.3-2.7c-2.6-1.1-5.4-1.7-8.2-1.4c-2.8,0.4-6.2,1.7-6.7,4.4
							c-0.4,2,0.1,4.2-1.2,5.8c-1.2,1.4-4,2.4-4.7,4.1c-0.6,1.4-0.5,3-0.9,4.4c-0.3,1.6-1.1,3.1-2.2,4.3c-0.7,0.8-1.5,1.5-1.7,2.5
							c-0.2,1,0.3,2.1,1.1,2.8c0.8,0.7,1.8,1,2.8,1.3c2.4,0.7,4.8,1.1,7.3,1.3c1.4-4.4,0.8-11.6,0.7-13c-0.5,0-1.2-0.2-1.3-0.2
							c-0.6-0.3-1.1-0.9-1.5-1.4c-0.4-0.7-0.5-1.6-0.2-2.3c0.2-0.6,0.7-1,1.3-1.2c0.6,2.1,2.3,3.9,4.3,4.8c-0.8-0.7-1.2-1.7-1.5-2.7
							c2.9,0.1,5.7-0.7,8.1-2.4c2.3-1.7,4.1-4.1,4.9-6.8c-1.5-0.7-3-0.7-4.7-0.6c-2.2,0.2-4.5,0.7-6.5,1.7c-0.9,0.4-1.7,1-2.5,1.6
							c0.5-1.7,1.3-3.2,2.7-4.2c5.3-3.9,12.3-1.8,13.5,2.2c0.9,3.1,1.1,6.7,0.9,10.1c-0.1,1.5-0.2,2.9-0.3,4.3c0,0.1,0,0.3,0,0.4
							c-0.1,0.6-0.1,1.2-0.4,1.8c-0.9,2.1-4.1,3.2-6.3,3.6c-0.2,1-0.1,2.4,0,3.6c0,0.5,0.1,1,0.2,1.4c3.1,0.2,6.1,0.4,9.2,0.5
							c1.1,0,2.2,0.1,3.2-0.5C310.4,213.7,311,212.1,310.9,210.6z"/>
					</g>
					<g>
						<g>
							<g>
								<path class="st10" d="M304.1,189.4c0-3.6-2.4-7.1-5.9-8.7c-3.5-1.7-7.9-1.6-11.5,0c-3.7,1.6-6.5,4.6-8,8
									c-0.2,0.5-0.4,1-0.4,1.6c0,0.5,0.3,1.1,0.8,1.4c1.1,0.6,2.8,0.7,3.7,1.6c1.2,1.1,3.3,0.1,5-0.1
									C293.2,192.3,299.2,191.8,304.1,189.4z"/>
								<path class="st10" d="M305.1,189c0,0.3-0.2,0.7-0.6,0.8c-6.3,2.7-13.2,4.3-20.1,4.7c-0.6,0-1.3,0.1-1.9-0.2
									c-0.1,0-0.1-0.1-0.2-0.1c-0.7-0.4-0.6-1.4,0.1-1.8c0.9-0.5,1.9-0.7,2.9-0.8c5.3-0.7,10.5-2,15.5-3.8
									c0.8-0.3,1.7-0.6,2.6-0.5C304.5,187.4,305,188.2,305.1,189z"/>
							</g>
						</g>
						<g>
							<g>
								<path class="st7" d="M282.2,192.5c1.7-0.6,3.4-1,5.1-1.5c1.7-0.5,3.4-0.9,5.2-1.3c1.7-0.4,3.5-0.8,5.2-1.1
									c1.7-0.3,3.5-0.7,5.2-0.9c-1.7,0.6-3.4,1-5.1,1.5c-1.7,0.5-3.4,0.9-5.2,1.3c-1.7,0.4-3.5,0.8-5.2,1.1
									C285.7,191.9,284,192.2,282.2,192.5z"/>
							</g>
							<g>
								<path class="st7" d="M281.7,187.7c-0.1,0.9-0.1,1.7,0,2.6c0.1,0.8,0.2,1.6,0.5,2.5c-0.7-0.6-1.1-1.5-1.2-2.4
									C280.9,189.4,281.1,188.4,281.7,187.7z"/>
							</g>
						</g>
					</g>
				</g>
			</g>
		</g>
		<g>
			<path class="st4" d="M229.4,368c9.1-0.4,18.2-0.6,27.4-0.8c9.1-0.2,18.2-0.2,27.4-0.2c9.1,0,18.2,0.1,27.4,0.2
				c9.1,0.1,18.2,0.4,27.4,0.8c-9.1,0.4-18.2,0.6-27.4,0.8c-9.1,0.2-18.2,0.2-27.4,0.2c-9.1,0-18.2-0.1-27.4-0.2
				C247.7,368.6,238.5,368.4,229.4,368z"/>
		</g>
	</g>
	<g>
		<g>
			<defs>
				<polygon id="SVGID_3_" points="192.1,139 199.2,385.6 118.3,349.6 100.1,350.5 100.1,337.1 100,284.6 99.9,241 99.8,188.1 
					99.7,161.8 99.6,130.2 128.5,133 152.6,135.2 				"/>
			</defs>
			<clipPath id="SVGID_4_">
				<use xlink:href="#SVGID_3_"  style="overflow:visible;"/>
			</clipPath>
			<g class="st11">
				<g>
					<g>
						<g>
							<path class="st12" d="M165.9,354.3l2,8.4l8-2.5c0,0-0.1-1.9-0.3-5.2C172.4,354.8,169.1,354.6,165.9,354.3z"/>
						</g>
						<path class="st13" d="M169,367.3c6.9,0.1,13.9-0.7,20.6-2.6c0-1.6-1.6-3.1-3.2-3.5s-3.1-0.1-4.7,0c-1.6,0.1-3.3,0-4.5-1
							c0.3-0.5-0.1-1.1-0.5-1.4c-0.5-0.2-1.1-0.2-1.6,0c-0.9,0.2-1.8,0.6-2.5,1.2c-0.6,0.4-1.1,0.9-1.8,1.1c-0.6,0.2-1.3,0-1.9-0.4
							c-0.3-0.2-0.7-0.4-1-0.6c-0.6-0.3-1.4-0.1-1.7,0.5c-0.1,0.1-0.1,0.3-0.2,0.4c0.7,1.4,1.1,2.8,1.1,4.4
							C167.1,366.5,168,367.3,169,367.3z"/>
					</g>
					<g>
						<g>
							<path class="st12" d="M95.9,321.5c-5.3,2.8-8.8,4.6-8.8,4.6l2.8,8.8l11.4-4.3C99.5,327.5,97.9,324.3,95.9,321.5z"/>
						</g>
						<path class="st13" d="M82.4,328.2c0.9,6.8,2.8,13.7,5.7,20c1.6-0.3,2.8-2.1,3-3.7c0.1-1.6-0.4-3.1-0.7-4.7
							c-0.3-1.5-0.5-3.3,0.3-4.6c0.5,0.2,1.1-0.2,1.3-0.8c0.2-0.5,0-1.1-0.2-1.6c-0.4-0.9-0.9-1.6-1.6-2.3c-0.5-0.5-1.1-0.9-1.4-1.6
							c-0.3-0.6-0.2-1.3,0.1-1.9c0.1-0.3,0.3-0.7,0.4-1.1c0.2-0.6-0.1-1.4-0.8-1.6c-0.1,0-0.3-0.1-0.4-0.1c-1.2,0.9-2.6,1.5-4.1,1.8
							C83,326.2,82.3,327.2,82.4,328.2z"/>
					</g>
					<g>
						<path class="st7" d="M133.2,263.7c0,0-3.2,10.9-3.5,18.4s-3.6,22.2-3.6,22.2l-36.2,20l2.9,10.4c0,0,42.2-15.2,46.4-18.4
							s12.1-33.6,12.1-33.6l15.2,76.1l9.8-1.1c0,0-3.4-78.5-10.9-90.1L133.2,263.7z"/>
						<g>
							<g>
								<path class="st0" d="M132.1,268.7c2.8,0.8,5.7,1.4,8.6,2c2.9,0.6,5.8,1.1,8.7,1.4c2.9,0.4,5.8,0.5,8.7,0.6
									c2.9,0,5.8-0.2,8.8-0.6c-2.9,0.7-5.8,1.1-8.8,1.2c-3,0.1-5.9-0.1-8.8-0.4c-2.9-0.4-5.8-0.9-8.7-1.6
									C137.7,270.6,134.8,269.8,132.1,268.7z"/>
							</g>
							<g>
								<path class="st0" d="M154.4,269.4c0,1.7,0,3.4,0,5.1c0,1.7-0.1,3.4-0.1,5.1l0,0.1l-0.1,0.1l-2.6,3.3l-0.7,0.9l0-1.1
									c0.1-2.2,0.1-4.5,0.3-6.7c0.1-2.2,0.3-4.5,0.5-6.7c0.1,2.3,0.1,4.5,0.1,6.8c0,2.3-0.1,4.5-0.1,6.8l-0.7-0.2l2.7-3.2
									l-0.1,0.2c0.1-1.7,0.2-3.4,0.4-5.1C154.1,272.7,154.3,271,154.4,269.4z"/>
							</g>
							<g>
								<path class="st0" d="M163.4,272.7c0.1,0.8,0.2,1.6,0.4,2.4c0.2,0.8,0.5,1.5,0.9,2.1c0.4,0.7,0.9,1.2,1.6,1.6
									c0.6,0.5,1.4,0.7,2.2,1.1c-0.8,0-1.7-0.1-2.5-0.5c-0.8-0.4-1.5-1-1.9-1.8C163.2,276.2,163,274.3,163.4,272.7z"/>
							</g>
							<g>
								<path class="st0" d="M135.6,269.7c0.4,1.7,0.2,3.6-0.6,5.2c-0.4,0.8-1.1,1.5-1.9,2c-0.8,0.5-1.7,0.7-2.5,0.7
									c0.8-0.3,1.6-0.7,2.2-1.2c0.6-0.5,1.2-1.1,1.5-1.8c0.4-0.7,0.6-1.5,0.8-2.3C135.3,271.4,135.5,270.6,135.6,269.7z"/>
							</g>
							<g>
								<path class="st0" d="M147.8,281c1.6,0.3,3,1.1,4.2,2.1l-0.2-0.1c1.5,0.1,3.1,0,4.7,0.4c-1.6,0.2-3.1,0.4-4.8,0.4l-0.1,0
									l-0.1-0.1C150.4,282.6,149.2,281.8,147.8,281z"/>
							</g>
							<g>
								<path class="st0" d="M126.9,306.4c-0.5-0.5-0.8-1-1.1-1.6l-0.3-0.6l0.7,0.1c0.4,0,0.8,0.1,1.2,0.2c0.4,0.1,0.8,0.2,1.2,0.4
									c-0.4,0.1-0.8,0.2-1.3,0.2c-0.4,0-0.9,0-1.3-0.1l0.4-0.5C126.8,305.1,126.9,305.7,126.9,306.4z"/>
							</g>
						</g>
					</g>
				</g>
				<g>
					<g>
						<g>
							<path class="st12" d="M146.3,220.4c2.5-3.9,2.9-13.1,2.9-14.2c0,0,0-0.1,0-0.1l10.1,8.7c-0.3,0.3-0.5,0.7-0.6,1.2l0,0
								c-0.3,1-0.4,2.3-0.5,3.5c-0.1,1.8,0.1,3.3,0.1,3.3L146.3,220.4z"/>
							<path class="st14" d="M158.3,219.5c-6.4-0.5-8-8.5-8-8.8c0.8,2,2.2,3.3,3.8,4.1c1.9,1,3.9,1.2,4.7,1.2c0,0,0,0,0,0
								C158.4,217,158.3,218.3,158.3,219.5z"/>
						</g>
						<g>
							<g>
								<path class="st15" d="M176.1,256.2c-1.6,0.9-3.3,1.7-5,2.4c-1.3-2.5-2.5-5-3.6-7.3c-2.7-5.8-4.5-10.9-5.7-14.2
									c-1.1-2.9-4.1-7.6-3.8-9.3c0.8-4.4,4.1-7.9,9.7-2.1c0.9,0.9,3.4,5.1,4.2,7.1c1,2.5,2.7,6.4,4.8,10.8c0.7,1.5,1.4,3,2.1,4.5
									C180.1,251.1,179,254.6,176.1,256.2z"/>
							</g>
							<g>
								<path class="st0" d="M146.8,218.1c-3.3-0.2-6.6,0.2-9.8,1.1c-2,0.6-4.1,1.5-5.7,2.9c-1.6,1.4-2.8,3.4-2.9,5.5
									c-0.1,2.1,1.1,4.3,3.1,5.2c2.1,3.1,2.2,7.2,1.7,11c-0.4,3.7-1.5,7.3-2,11.1c-0.5,3.7-0.3,7.7,1.6,10.9
									c5.4,1.4,10.9,2.6,16.5,3.3c5.6,0.7,11.3,0.6,16.7-0.9c0.7-12.2,1.2-24.4,1.9-36.6c0.1-1.9,0.2-4-0.8-5.7
									c-1.1-1.7-3.1-2.6-5-3.4c-1.7-0.7-3.4-1.4-5.3-1.5c-1.2,0-2.3,0.2-3.5,0.1C151.1,220.8,148.6,219.5,146.8,218.1z"/>
							</g>
						</g>
					</g>
					<g>
						<g>
							<path class="st15" d="M174.4,241.1c2.6,2.5,5.4,5.4,5.9,9c0.2,1.3,0.1,2.6-0.3,3.8c-0.3,1.1-1.1,2.1-2.1,2.7
								c-1,0.6-1.9,1.3-2.8,2c-4,3-9.2,3.6-14.2,4.1c-0.5-1.2-0.8-2.4-1-3.7c-0.1-1.3,0.1-2.7,0.9-3.7c0.8-1,2-1.6,3.2-2.2
								c3.1-1.7,5.7-4.4,7.2-7.6C172.1,243.8,172.8,241.7,174.4,241.1z"/>
							<g>
								<g>
									<path class="st7" d="M167.3,250.4c0.7-1.3,1.7-2.4,2.9-3.4c1.2-0.9,2.5-1.6,4-2c-1.2,0.9-2.4,1.7-3.5,2.6
										C169.5,248.5,168.4,249.5,167.3,250.4z"/>
								</g>
								<g>
									<path class="st7" d="M171.7,243.9c0.2,0.6,0.2,1.1,0.1,1.6c-0.1,0.5-0.2,1-0.6,1.5c-0.2-0.6-0.2-1.1-0.1-1.6
										C171.2,244.9,171.4,244.4,171.7,243.9z"/>
								</g>
							</g>
						</g>
						<g>
							<path class="st15" d="M162.9,253.5c0.6,0.3,1,0.9,1,1.6l-0.2,7.6c0,1.3-0.1,2.7-0.9,3.7c-0.6,0.7-1.5,1.1-2.3,1.1
								c-0.9,0.1-1.7-0.1-2.6-0.2c-2.2-0.4-4.5-0.7-6.7-0.8c-1.7,0-3.5,0.2-5.2-0.2c-1.7-0.5-3.3-1.8-3.6-3.6
								c-0.1-0.9,0.1-1.9,0.3-2.8l1.2-5.1c0.2-0.7,0.7-1.2,1.3-1.3c3.2-0.4,6.8,1.2,10,0.9c1.5-0.2,2.9-0.8,4.4-1.1
								C160.6,253,161.9,253,162.9,253.5z"/>
							<g>
								<g>
									<path class="st7" d="M163.6,262.4c0-1.5,0.1-2.9,0-4.3c-0.1-1.4-0.3-2.8-0.4-4.3c0.8,1.3,1.1,2.7,1.2,4.2
										C164.4,259.5,164.2,261,163.6,262.4z"/>
								</g>
								<g>
									<path class="st7" d="M151.9,261c0.6-0.5,1.1-0.9,1.7-1.2c0.6-0.4,1.1-0.7,1.8-1c-0.3,0.7-0.8,1.3-1.4,1.7
										C153.3,260.8,152.6,261,151.9,261z"/>
								</g>
								<g>
									<path class="st7" d="M154.2,261.6c0.3-0.7,0.7-1.2,1.1-1.7c0.4-0.5,0.9-1,1.5-1.4c-0.1,0.7-0.4,1.4-0.9,1.9
										C155.4,260.9,154.9,261.4,154.2,261.6z"/>
								</g>
							</g>
						</g>
					</g>
					<g>
						<g>
							<path class="st7" d="M174.6,232.3l-0.4-0.2c-0.4-0.2-0.5-0.7-0.3-1.1l6.5-11.3c0.2-0.4,0.7-0.5,1.1-0.3l0.4,0.2
								c0.4,0.2,0.5,0.7,0.3,1.1l-6.5,11.3C175.5,232.4,175,232.6,174.6,232.3z"/>
							<path class="st12" d="M181.2,228.9c0-0.1,0-0.1,0-0.1c0.3-0.7-0.1-1.5-0.1-1.5c0.4-0.9-0.6-1.4-0.6-1.4
								c0.6-1.2-0.1-1.8-0.1-1.8c-2,1.8-2.6,2-2.7,2c0,0,0,0,0,0c-0.4-0.4,0.1-1.8,0.5-2.5c0-0.1,0-0.1,0-0.2c0,0,0,0,0,0
								c0-0.1-0.1-0.1-0.1-0.2c-0.3-0.1-0.8-0.2-1.2,0.5c-0.6,0.9-1.7,2.6-2.2,5.1c0,0,0,0,0,0c-0.9,0.6-11.2,7.3-22.1,14.3
								c-3.3-5.7-6.1-10.8-7.7-13.9c-0.9-1.8-1.8-3.2-2.7-4.2c-2.9-3.4-8-1.8-8.4,2.6c-0.2,1.7,0.1,4,1.4,6.8
								c1.6,3.4,4.1,8.8,7.6,14.9c0.9,1.6,1.9,3.3,3,4.9c1.7,2.7,5.3,3.4,7.9,1.6c1.4-1,2.9-2,4.3-3.1c7.3-5.6,14.5-12.5,19.8-21
								l1.3-0.5c0.3-0.1,1-0.4,1.5-0.5C181.1,230.5,181.5,229.7,181.2,228.9z"/>
						</g>
						<g>
							<g>
								<path class="st16" d="M169.4,231.5c0,0,4-2.8,4.5-2.8c0.4,0,3.7,3.4,3.9,3.7c0.2,0.2-2.9,4.8-2.9,4.8
									S169.7,233.3,169.4,231.5z"/>
								<path class="st0" d="M169.2,231.2c-5.7,2.8-11.1,6.1-16.1,10c-1.4-5.1-3.7-9.8-6.9-14c-1.7-2.3-3.9-4.6-7.1-4.5
									c-1.8,0-3.5,0.8-4.7,2.1c-1.6,1.8-2.2,4.2-1.4,6.3c0.3,1,0.4,2,0.4,3c0,1.7,0.6,3.5,1.5,5c1.2,2,2.8,3.8,4,5.8
									c1.3,2.2,2.2,4.7,3.4,7c1.2,2.3,2.9,4.5,5.3,5.4c2.4,1,5.1,0.6,7.4-0.4c2.3-1.1,4.3-2.8,6.1-4.6c1.5-1.5,1.9-3.7,3.7-5
									c1.7-1.3,3.6-2.3,5.3-3.7c1.8-1.4,3.3-3.3,4.5-5.2c0.2-0.3,0.3-0.5,0.5-0.8c0.1-0.2,0.1-0.5-0.1-0.7
									c-1.6-1.8-3.2-3.7-4.9-5.4C169.8,231.2,169.5,231.1,169.2,231.2z"/>
							</g>
							<g>
								<g>
									<g>
										<path class="st7" d="M134.2,237.7c0.3,1.2,1,2.3,1.8,3.2c0.8,0.9,1.7,1.8,2.6,2.7c1.8,1.8,2.8,4.2,3.8,6.5
											c1,2.2,2.1,4.5,4,6.1c1.8,1.6,4.4,2.1,6.7,1.5c1.2-0.3,2.2-0.8,3.2-1.6c1-0.7,1.8-1.6,2.7-2.5c1.6-1.8,3.1-3.9,4.9-5.6
											c1.8-1.7,3.9-3.1,5.9-4.7c1.9-1.5,3.7-3.3,4.8-5.6c-0.9,2.4-2.7,4.2-4.5,5.9c-1.9,1.6-4,3.1-5.7,4.8
											c-1.7,1.7-3.2,3.8-4.8,5.7c-0.8,0.9-1.7,1.9-2.7,2.6c-1,0.8-2.2,1.5-3.4,1.8c-2.5,0.6-5.4,0-7.3-1.7
											c-2-1.7-3.1-4.1-4.1-6.4c-1-2.3-1.9-4.6-3.6-6.5c-0.8-0.9-1.7-1.8-2.5-2.8C135.1,240.1,134.4,238.9,134.2,237.7z"/>
									</g>
									<g>
										<path class="st7" d="M153.1,241.2c-0.4,0.6-0.9,1.1-1.4,1.5c-0.5,0.4-1.1,0.7-1.8,0.9c0.4-0.6,0.9-1.1,1.4-1.5
											C151.8,241.7,152.4,241.4,153.1,241.2z"/>
									</g>
									<g>
										<path class="st7" d="M154.8,244c-0.8-1-1.5-2-2.3-2.8l0.6-0.1c-0.4,0.9-0.6,1.9-0.8,3c-0.3-1-0.2-2.2,0.2-3.2l0.2-0.6
											l0.4,0.4c0.5,0.5,0.8,1,1.1,1.6C154.5,242.8,154.7,243.4,154.8,244z"/>
									</g>
									<g>
										<path class="st7" d="M146.1,227.2c1,0.9,1.8,1.9,2.6,2.9c0.8,1.1,1.4,2.2,2,3.4c0.6,1.2,1,2.4,1.4,3.7
											c0.3,1.3,0.6,2.6,0.6,3.9c-0.4-1.2-0.7-2.5-1.2-3.7c-0.5-1.2-0.9-2.4-1.5-3.5c-0.5-1.2-1.2-2.3-1.8-3.4
											C147.6,229.3,146.8,228.3,146.1,227.2z"/>
									</g>
								</g>
								<g>
									<path class="st7" d="M171,232.1c0.3-0.6,0.7-1,1.1-1.4c0.5-0.4,0.9-0.7,1.6-0.8c-0.3,0.6-0.7,1-1.1,1.4
										C172.1,231.6,171.7,231.9,171,232.1z"/>
								</g>
								<g>
									<path class="st7" d="M172.2,233.3c0.2-0.7,0.6-1.2,1-1.7c0.4-0.5,0.9-0.9,1.6-1.1c-0.2,0.7-0.6,1.2-1,1.7
										C173.3,232.6,172.8,233,172.2,233.3z"/>
								</g>
								<g>
									<path class="st7" d="M173.3,234.8c0.2-0.8,0.6-1.5,1.1-2.1c0.5-0.6,1-1.2,1.7-1.7c-0.2,0.8-0.6,1.5-1.1,2.1
										C174.5,233.8,174,234.4,173.3,234.8z"/>
								</g>
								<g>
									<g>
										<path class="st7" d="M133.3,232.2c0.1-1.7,0.6-3.4,1.4-4.9c0.8-1.5,1.9-2.9,3.3-4c1.4-1.1,2.9-1.9,4.6-2.4
											c1.7-0.5,3.4-0.6,5.1-0.4c-1.7,0.1-3.4,0.3-4.9,0.9c-1.6,0.6-3,1.4-4.3,2.4c-1.3,1-2.4,2.3-3.2,3.7
											C134.3,228.9,133.7,230.5,133.3,232.2z"/>
									</g>
									<g>
										<g>
											<g>
												<path class="st7" d="M150.1,221.7c-0.2,1.2,0,2.5,0.5,3.6c0.4,1.1,1.1,2.2,1.7,3.2c0.6,1,1.3,2.1,1.8,3.3
													c0.4,1.2,0.7,2.5,0.4,3.7l-0.1,0c0.1-1.2-0.2-2.4-0.7-3.5c-0.5-1.1-1.2-2.1-1.8-3.2c-0.6-1.1-1.3-2.1-1.7-3.3
													C149.8,224.2,149.7,222.9,150.1,221.7z"/>
												<g>
													<path class="st7" d="M153.9,235.4c-0.1,0.3,0.2,0.6,0.5,0.7c0.3,0.1,0.6-0.2,0.7-0.5c0.1-0.3-0.2-0.6-0.5-0.7
														C154.2,234.8,153.9,235,153.9,235.4z"/>
												</g>
											</g>
										</g>
										<g>
											<g>
												<path class="st7" d="M157,222.2c0.3,1,1,1.7,1.8,2.2c0.8,0.6,1.7,1,2.6,1.4c0.9,0.5,1.8,1.1,2.4,2
													c0.6,0.9,0.9,1.9,0.8,2.9l-0.1,0c-0.1-1-0.5-1.9-1.1-2.7c-0.6-0.8-1.4-1.3-2.3-1.8c-0.9-0.5-1.8-0.9-2.6-1.6
													C157.8,224.1,157.1,223.2,157,222.2z"/>
												<g>
													<path class="st7" d="M163.9,230.7c0,0.3,0.3,0.6,0.6,0.6c0.3,0,0.6-0.3,0.6-0.6c0-0.3-0.3-0.6-0.6-0.6
														C164.2,230.1,163.9,230.4,163.9,230.7z"/>
												</g>
											</g>
										</g>
									</g>
								</g>
							</g>
						</g>
					</g>
				</g>
				<g>
					<g>
						<path class="st12" d="M167.3,196.7c-0.7-4.1-7.4-7.1-13.2-3.8c-2.7,1.5-3.9,5-4.4,8.3c-0.1-0.1-0.2-0.1-0.3-0.2
							c-0.9-0.5-2.1,0.1-2.6,1c-0.4,0.7-0.4,1.6-0.1,2.3c0.2,0.6,0.7,1.2,1.3,1.6c0.1,0.1,0.8,0.3,1.3,0.4c0,2.2,0.7,4.5,2.1,6.2
							c1.8,2.2,4.4,3.5,7.2,3.5c2.2,0,5.6-0.7,6.8-2.8c0.3-0.5,0.5-1.1,0.6-1.7C167,206.9,168.1,201.5,167.3,196.7z"/>
						<g>
							<g>
								<g>
									<path class="st17" d="M160.5,204.3c-0.1-0.3-0.2-0.6-0.4-0.9c-0.2-0.2-0.4-0.4-0.6-0.6c-0.2-0.1-0.5-0.2-0.8-0.3l-0.9-0.2
										c0.2-0.1,0.3-0.1,0.5-0.2c0.2,0,0.3,0,0.5-0.1c0.3,0,0.7,0.1,1,0.2c0.3,0.2,0.6,0.5,0.7,0.8
										C160.6,203.6,160.6,203.9,160.5,204.3z"/>
								</g>
								<g>
									<path class="st17" d="M167.1,204.5c-0.5-0.5-1-0.8-1.6-0.8c-0.3,0-0.6,0.1-0.8,0.3c-0.3,0.2-0.5,0.3-0.9,0.5
										c0.1-0.2,0.2-0.3,0.3-0.5c0.1-0.1,0.2-0.3,0.4-0.4c0.3-0.2,0.6-0.4,1-0.4c0.4,0,0.8,0.1,1.1,0.4
										C166.9,203.9,167.1,204.2,167.1,204.5z"/>
								</g>
							</g>
							<g>
								<g>
									<path class="st7" d="M163.3,208c-0.3,0.4-0.7,0.7-1.2,0.9c-0.5,0.2-1,0.3-1.5,0.2c-0.5-0.1-1-0.4-1.3-0.8
										c-0.2-0.2-0.3-0.4-0.4-0.6c-0.1-0.2-0.2-0.4-0.3-0.7c0.2,0.2,0.3,0.4,0.5,0.6c0.2,0.2,0.3,0.3,0.5,0.5
										c0.3,0.3,0.7,0.5,1.2,0.6c0.4,0.1,0.9,0.1,1.3-0.1C162.5,208.4,162.9,208.2,163.3,208z"/>
									<path class="st7" d="M161.2,209.9c-0.2,0.1-0.5,0.1-0.7,0.1c-0.2-0.1-0.5-0.2-0.6-0.4c0.2,0.1,0.4,0.2,0.6,0.2
										C160.7,209.9,160.9,209.9,161.2,209.9z"/>
								</g>
							</g>
							<g>
								<g>
									<path class="st7" d="M161.1,198.8c-0.2-0.3-0.6-0.5-0.9-0.6c-0.3-0.1-0.7-0.1-1.1-0.1c-0.4,0-0.7,0.2-1,0.3
										c-0.3,0.2-0.6,0.4-0.8,0.7c-0.1,0.1-0.1,0.3,0,0.4c0.1,0.1,0.2,0.1,0.4,0l0,0c0.2-0.1,0.5-0.3,0.7-0.4
										c0.2-0.1,0.5-0.1,0.7-0.1c0.2,0,0.5,0,0.8,0.1c0.2,0.1,0.5,0.1,0.8,0.1l0.1,0c0.2,0,0.3-0.2,0.3-0.3
										C161.2,198.9,161.2,198.9,161.1,198.8z"/>
									<path class="st7" d="M164.2,199.5c0.3-0.2,0.7-0.2,1-0.2c0.3,0.1,0.7,0.2,1,0.4c0.3,0.2,0.6,0.4,0.8,0.7
										c0.2,0.3,0.4,0.6,0.5,0.9c0.1,0.2,0,0.3-0.2,0.4c-0.1,0-0.3,0-0.3-0.1l0,0c-0.2-0.2-0.3-0.4-0.5-0.6
										c-0.2-0.2-0.4-0.3-0.6-0.4c-0.2-0.1-0.5-0.2-0.7-0.2c-0.3,0-0.5-0.1-0.8-0.2l-0.1,0c-0.2-0.1-0.2-0.3-0.2-0.4
										C164.1,199.6,164.2,199.5,164.2,199.5z"/>
								</g>
							</g>
							<path class="st7" d="M163.5,201.8c0,0.5,0,1,0,1.5c0,0.5,0,1,0,1.5c0,0.1,0,0.2,0,0.4c0,0.1,0.1,0.3,0,0.4
								c0,0.3-0.3,0.6-0.6,0.7c-0.3,0.1-0.6,0-0.8-0.1c-0.2-0.1-0.4-0.3-0.6-0.5c0.4,0.3,0.9,0.5,1.3,0.3c0.2-0.1,0.3-0.2,0.3-0.4
								c0-0.1,0-0.2,0-0.3c0-0.1,0-0.3-0.1-0.4c0-0.5,0-1,0.1-1.5C163.2,202.8,163.3,202.3,163.5,201.8z"/>
							<path class="st7" d="M147.4,202.7c0.1-0.3,0.2-0.6,0.5-0.8c0.3-0.2,0.7-0.1,1,0.1c0.3,0.2,0.5,0.4,0.7,0.7
								c0.2,0.3,0.3,0.6,0.3,0.9c0,0.1-0.1,0.2-0.2,0.3c-0.1,0-0.2,0-0.2-0.1l0,0c-0.2-0.3-0.4-0.5-0.6-0.7c-0.1-0.1-0.2-0.1-0.3,0
								c-0.1,0-0.2,0.2-0.3,0.3c-0.2,0.3-0.3,0.6-0.1,0.8c0.2,0.2,0.6,0.2,0.9,0.3c-0.3,0.1-0.7,0.1-1.1-0.1
								c-0.2-0.1-0.3-0.4-0.3-0.6c0-0.2,0.1-0.4,0.2-0.6c0.1-0.2,0.2-0.3,0.4-0.5c0.2-0.1,0.5-0.1,0.7,0c0.4,0.2,0.6,0.5,0.8,0.8
								l-0.4,0.1c-0.1-0.5-0.3-1.1-0.7-1.4c-0.2-0.2-0.5-0.3-0.7-0.2C147.8,202.2,147.6,202.5,147.4,202.7z"/>
						</g>
					</g>
					<path class="st13" d="M169.1,202.7c-0.4-2.7,0.8-5.5,0.1-8.1c-0.4-1.5-1.5-2.9-2.8-3.6c-1.4-0.8-3-0.8-4.5-0.4
						c-1.9-1.9-5.1-2.4-7.5-1.1c-2,1.1-3.3,3.3-5,4.9c-1,0.9-2.1,1.7-2.8,2.8c-0.3,0.4-0.4,0.9-0.5,1.4c0,0,0,0,0,0
						c0,0.2,0,0.4-0.1,0.5c0,0,0,0,0,0.1c-0.4,3.4,0.7,7,3.1,9.6c0.1-1.1,0.1-1.9,0.1-2.3c-0.5-0.1-1.1-0.3-1.3-0.4
						c-0.6-0.4-1-1-1.3-1.6c-0.3-0.8-0.3-1.6,0.1-2.3c0,0,0,0,0,0c0.5-0.8,1.5-1,2.3-0.5c0.6,0.4,1.1,0.8,1.5,1.3
						c1,1.2,1.8,2.5,3.1,3.3c0.6,0.4,1.6,0.5,2-0.2c0.2-0.3,0.2-0.6,0.1-0.9c0-1.5-0.1-3-0.1-4.5c0-1.6,0-3.5,1.2-4.6
						c0.8-0.8,2.1-1.1,3.2-0.8c1.1,0.3,2.1,1,2.8,2c0,0,1.6-1.3,3.1-0.5c1.3,0.7,1.8,3.9,0.9,10c-0.2,1-0.3,2-0.5,2.9
						c0,0,0,0.1,0,0.1c0.3,0.8,1.4,1.1,2.2,0.7c0.8-0.4,1.2-1.2,1.3-2C170.3,206.4,169.3,204.5,169.1,202.7z"/>
				</g>
			</g>
		</g>
		<g>
			<path class="st4" d="M142.1,368c5.2-0.4,10.4-0.6,15.6-0.8c5.2-0.2,10.4-0.2,15.6-0.2c5.2,0,10.4,0.1,15.6,0.2
				c5.2,0.1,10.4,0.4,15.6,0.8c-5.2,0.4-10.4,0.6-15.6,0.8c-5.2,0.2-10.4,0.2-15.6,0.2c-5.2,0-10.4-0.1-15.6-0.2
				C152.5,368.6,147.3,368.4,142.1,368z"/>
		</g>
	</g>
	<g>
		<g>
			<g>
				<g>
					<g>
						<path class="st18" d="M404.3,348.6l-1.3,7.1l-0.1,0.7l2.3,2.5l6-0.2c0,0,0-0.2,0.1-0.5c0.3-0.9,1.1-3.2,2.2-6.5
							C410.4,350.7,407.3,349.7,404.3,348.6z"/>
					</g>
					<path class="st0" d="M402.2,362.3c6.3,2.8,13.1,4.7,20,5.6c0.6-1.5-0.3-3.5-1.6-4.4s-2.9-1.3-4.3-1.8c-1.5-0.5-3.1-1.2-3.8-2.7
						c0.4-0.4,0.4-1.1,0-1.5c-0.4-0.4-0.9-0.6-1.4-0.6c-0.9-0.1-1.9-0.1-2.8,0.1c-0.7,0.2-1.4,0.5-2.1,0.3c-0.7-0.1-1.2-0.5-1.6-1.1
						c-0.2-0.3-0.5-0.6-0.7-0.9c-0.4-0.5-1.2-0.6-1.7-0.2c-0.1,0.1-0.2,0.2-0.3,0.3c0.2,1.5-0.1,3.1-0.6,4.5
						C400.8,360.8,401.2,361.9,402.2,362.3z"/>
				</g>
				<g>
					<g>
						<path class="st8" d="M359.3,327.3c-1-1.3-1.9-2.6-2.8-3.9c-4.1,2.5-6.8,4.1-7.5,4.5c-0.1,0-0.1,0.1-0.1,0.1l0.3,4.2l3.6,4
							l0.2,0.5l9.1-4.1C361.1,330.9,360.2,329.2,359.3,327.3z"/>
					</g>
					<path class="st0" d="M344,331.7c2.1,6.6,5.2,13,9.1,18.7c1.5-0.6,2.4-2.6,2.3-4.1c-0.1-1.6-0.9-3-1.5-4.5
						c-0.6-1.5-1.1-3.1-0.5-4.6c0.5,0.1,1.1-0.4,1.1-1c0.1-0.5-0.2-1.1-0.5-1.5c-0.5-0.8-1.2-1.5-1.9-2c-0.6-0.4-1.2-0.7-1.6-1.3
						c-0.4-0.6-0.4-1.3-0.2-1.9c0.1-0.3,0.1-0.8,0.2-1.2c0.1-0.7-0.3-1.3-1-1.4c-0.2,0-0.3,0-0.5,0c-1.1,1.1-2.3,2-3.7,2.5
						C344.2,329.7,343.7,330.7,344,331.7z"/>
				</g>
				<g>
					<path class="st7" d="M427.8,312.9c-0.5,9.5-14,44-14,44l-11-3l8.2-45.3l-6.8-24l-9.4,30.8c-0.5,1.6-1.2,3-2.3,4.2
						c-4.9,5.8-11.5,10-18.7,12c-3,0.8-6.1,1.3-9,2.3c-3.2,1.1-6.3,2.9-9.1,4.8c-0.7-2.9-1.7-5.7-2.9-8.4c-0.5-1.2-1.1-2.4-1.7-3.6
						c-0.1-0.1-0.1-0.3-0.2-0.4c1.2-1.9,2.8-3.5,4.6-4.9c1.3-1,2.7-1.9,4.1-2.7c6.4-3.8,13.2-7.4,20-10.5c0,0,1-12.5,3.2-26.7
						c2.2-14.2,6-24.8,6-24.8l1.7,0l4,0.1l24.5,0.4C418.8,257.1,428.3,303.4,427.8,312.9z"/>
					<g>
						<path class="st10" d="M394.3,256.7c-0.9,14.3-3.8,51.8-8.8,55.9c-4.6,3.8-27.4,14.9-32.9,17.5c-0.5-1.2-1.1-2.4-1.7-3.6
							c8.7-4.2,28.3-13.9,32-17c2.6-2.6,5.8-28.5,7.3-52.9L394.3,256.7z"/>
					</g>
					<g>
						<g>
							<path class="st0" d="M404.1,284c0.4-1.8,1-3.6,1.5-5.4c0.6-1.8,1.2-3.5,2.1-5.2c-0.2,1.9-0.8,3.7-1.3,5.5
								C405.7,280.6,405,282.4,404.1,284z"/>
						</g>
						<g>
							<path class="st0" d="M405.3,284.4c0.5,0.1,0.7,0.3,1,0.6c0.2,0.3,0.4,0.6,0.4,1.1c-0.5-0.1-0.7-0.3-1-0.6
								C405.4,285.2,405.3,284.9,405.3,284.4z"/>
						</g>
						<g>
							<path class="st0" d="M406,283.9c0.3-0.2,0.6-0.2,0.8-0.1c0.2,0.1,0.4,0.2,0.5,0.6c-0.3,0.2-0.6,0.2-0.8,0.1
								C406.3,284.4,406.1,284.3,406,283.9z"/>
						</g>
						<g>
							<path class="st0" d="M400.8,283.2c0.2-0.2,0.4-0.3,0.6-0.2c0.2,0.1,0.3,0.2,0.4,0.5c-0.2,0.2-0.4,0.3-0.6,0.2
								C401,283.7,400.9,283.6,400.8,283.2z"/>
						</g>
						<g>
							<path class="st0" d="M401.3,285.3c0-0.3,0.2-0.5,0.3-0.6c0.2-0.1,0.4-0.1,0.7,0.1c0,0.3-0.2,0.5-0.3,0.6
								C401.8,285.4,401.6,285.5,401.3,285.3z"/>
						</g>
						<g>
							<path class="st0" d="M412.5,305.6c-0.2,0.4-0.3,0.8-0.4,1.3c-0.1,0.5-0.3,1-0.4,1.5l-0.7-0.3c0.3-0.3,0.5-0.8,0.8-1.2
								C412,306.5,412.2,306,412.5,305.6z M412.5,305.6c-0.2,0.5-0.3,0.9-0.4,1.4c-0.1,0.5-0.2,0.9-0.5,1.4l-0.7-0.3
								c0.2-0.4,0.5-0.7,0.8-1.1C412,306.6,412.3,306.1,412.5,305.6z"/>
						</g>
						<g>
							<path class="st0" d="M406.5,280.9c1.8,2.5,3.1,5.4,4,8.4c0.9,3,1.4,6.1,1.8,9.2c0.7,6.2,0.9,12.4,0.6,18.7
								c-0.2,3.1-0.4,6.2-0.8,9.3c-0.2,1.5-0.4,3.1-0.7,4.6c-0.3,1.5-0.5,3.1-0.9,4.6c-0.8,3-1.8,6-2.9,8.9c-1.1,2.9-2.2,5.8-3,8.8
								c0.7-3,1.7-6,2.6-8.9c1-2.9,2-5.9,2.7-8.9c1.2-6.1,1.9-12.2,2.2-18.4c0.3-6.2,0.1-12.4-0.5-18.6c-0.3-3.1-0.7-6.2-1.5-9.1
								C409.4,286.4,408.3,283.5,406.5,280.9z"/>
						</g>
						<g>
							<path class="st0" d="M388.1,259.8c0.4,0,0.6,0.1,0.7,0.2c0.2,0.1,0.3,0.3,0.4,0.7c-0.3,0.2-0.6,0.1-0.9-0.1
								C388.2,260.4,388.1,260.1,388.1,259.8z"/>
						</g>
						<g>
							<path class="st0" d="M394.2,260.8c1.9-0.9,4.2-1,6.2-0.4c0.5,0.2,1,0.3,1.4,0.3c0.4,0,0.9-0.2,1.3-0.4c0.5-0.2,1-0.5,1.6-0.5
								c0.6-0.1,1.1-0.1,1.6,0c2.1,0.2,4.2,0.3,6.3,0.5c2.1,0.2,4.2,0.4,6.2,0.7c-2.1,0-4.2-0.1-6.3-0.2c-2.1-0.1-4.2-0.2-6.3-0.4
								c-1-0.1-2-0.1-2.9,0.4c-0.5,0.2-1,0.5-1.7,0.4c-0.6,0-1.1-0.3-1.6-0.4C398.3,260.2,396.2,260.2,394.2,260.8z"/>
						</g>
						<g>
							<path class="st7" d="M390.3,258.8c0.6-0.2,1.1-0.1,1.6-0.1c0.5,0.1,1,0.1,1.5,0.4c-0.5,0.3-1,0.4-1.6,0.4
								C391.2,259.3,390.7,259.2,390.3,258.8z"/>
						</g>
					</g>
				</g>
			</g>
			<g>
				<g>
					<g>
						<path class="st19" d="M398.3,222.5c1.7-4.3,0.2-13.4,0-14.5c0,0,0-0.1,0-0.1l11.6,6.5c-0.2,0.3-0.3,0.8-0.4,1.3v0
							c-0.1,1,0,2.4,0.3,3.6c0.3,1.8,0.8,3.3,0.8,3.3H398.3z"/>
						<path class="st7" d="M409.8,219.2c-6.3,0.8-9.5-6.7-9.6-7c1.2,1.9,2.9,2.8,4.5,3.2c2,0.6,4,0.4,4.8,0.2c0,0,0,0,0,0
							C409.4,216.7,409.6,218,409.8,219.2z"/>
					</g>
					<g>
						<path class="st10" d="M420.7,227.9c1,4.4-0.1,9.1-0.8,13.6c-0.8,5.4-0.9,10.8-0.4,16.2c0.1,0.8-0.5,1.6-1.4,1.7
							c-4.7,0.4-9.9-1.5-14.6-1.1c-2.7,0.2-5.3,1.2-7.9,1.2c-2,0-4.6-0.3-6.7-0.8c-0.7-0.2-1.2-0.8-1.2-1.6c0-0.7,0.3-1.4,0.3-2.1
							c0.1-1.2,0.3-2.3,0.4-3.5c0.2-2.1-0.2-4.3-0.6-6.4c-0.5-3-1.1-6-1.6-9c-0.5-2.6-1.4-5.5-0.8-8.1c0.3-1.2,1.1-2.3,2.1-3
							c2-1.3,2.8-2.6,5-3.1c1.6-0.4,4.6,0,5.7-1.3c0,0,6.2,3.2,13.4,0.8c2.4,1.3,4.6,2.6,7.1,3.9
							C419.6,225.9,420.4,226.8,420.7,227.9z"/>
						<g>
							<g>
								<path class="st7" d="M397.6,222.2c1.1,0.6,2.3,1.1,3.5,1.5c1.2,0.3,2.4,0.5,3.7,0.6c1.2,0.1,2.5-0.1,3.7-0.3
									c1.2-0.2,2.4-0.7,3.6-1.2c-1,0.8-2.2,1.4-3.4,1.8c-1.2,0.4-2.6,0.5-3.9,0.5c-1.3-0.1-2.6-0.3-3.8-0.8
									C399.7,223.8,398.6,223.1,397.6,222.2z"/>
							</g>
							<g>
								<path class="st7" d="M419.1,256.4c-0.2-2-0.3-4-0.4-5.9c0-2,0-4,0.2-5.9c0.1-2,0.3-4,0.7-5.9c0.3-2,0.7-3.9,1.2-5.8
									l-0.6,5.9c-0.2,2-0.4,3.9-0.5,5.9c-0.1,2-0.2,3.9-0.3,5.9L419.1,256.4z"/>
							</g>
							<g>
								<path class="st7" d="M400.1,245.2c1.5-1.5,2.9-3,4.4-4.5c1.4-1.5,2.8-3.1,4.3-4.6c-1,1.9-2.3,3.6-3.7,5.1
									C403.5,242.7,401.9,244.1,400.1,245.2z"/>
							</g>
							<g>
								<path class="st7" d="M404.5,245.1c0.5-1.1,1.1-2,1.8-3c0.7-0.9,1.3-1.9,2.1-2.7c-0.3,1.2-0.9,2.2-1.5,3.1
									C406.2,243.5,405.4,244.4,404.5,245.1z"/>
							</g>
						</g>
					</g>
				</g>
				<g>
					<path class="st19" d="M373,234.4c-9.3,6.6-20.1,16-26.9,27.8c-0.6,0.1-1.2,0.3-1.8,0.7c-1.8,1.1-5.9,3.6-5.9,4
						c0.1,0.4,1.7,0.4,1.7,0.4s-0.8,1.2,0.9,1.4c0,0-0.4,1.1,1.2,1.5c0,0-0.1,1.1,0.9,1.2s2.6-2.9,3-2.9s-0.7,2.2-0.2,2.7
						c0.4,0.4,2.2-0.8,3.1-4.6c0,0,0,0,0,0c0,0,0-0.1,0-0.1c0.1-0.3,0.1-0.6,0.2-0.9c0.6-0.5,17.9-13,31.5-22.4
						C378.3,240,375.7,237.1,373,234.4z"/>
					<g>
						<path class="st10" d="M366.5,236.3c0,0,4.4,8.9,8.5,10.6l19.7-12.8c0,0,4.4-8.7-2.2-12.2C392.5,222,380.2,224.1,366.5,236.3z"
							/>
						<g>
							<g>
								<path class="st7" d="M386.6,239.6c0.3-0.6,0.8-0.9,1.2-1.3c0.4-0.4,0.9-0.7,1.5-0.9c-0.2,0.6-0.5,1.1-1,1.5
									C387.8,239.3,387.3,239.6,386.6,239.6z"/>
							</g>
							<g>
								<path class="st7" d="M386.9,239.9c0.3-0.2,0.6-0.3,0.9-0.3c0.3,0,0.5,0.1,0.9,0.3c-0.2,0.3-0.6,0.4-0.9,0.5
									C387.5,240.3,387.2,240.2,386.9,239.9z"/>
							</g>
							<g>
								<path class="st7" d="M367.8,235.7c0.4,1,1,1.8,1.7,2.6c0.7,0.8,1.4,1.5,2.1,2.3c1.4,1.6,2.7,3.2,3.9,4.9
									c-1.6-1.4-3.1-2.9-4.5-4.4c-0.7-0.8-1.4-1.6-2-2.4C368.4,237.7,367.9,236.7,367.8,235.7z"/>
							</g>
						</g>
					</g>
				</g>
				<g>
					<g>
						<path class="st19" d="M448.4,265.4c-3.2-1.5-10.9-5.1-19.2-9.2c-0.9-2.6-1.7-5.2-2.6-7.8c-0.9,0.4-1.7,0.7-2.5,1.1
							c-2.6,1.1-5.3,2.4-8,3.6c1,2.9,2.2,5.9,3.5,9c0.6,1.4,1.8,2.6,3.3,3.1c3.3,1.2,6.7,2.2,10.3,3.1c5.2,1.2,13.7,2.9,22.2,3.2
							l-0.6-1.1l0.9-3C455.6,267.4,449.4,265.9,448.4,265.4z"/>
					</g>
					<g>
						<path class="st10" d="M415.2,223.4c0,0,5.2,0.9,6.8,7.2c1.6,6.2,6.3,20.5,6.3,20.5s-7.1,5.7-12.7,5.7
							C415.6,256.8,403.3,226.4,415.2,223.4z"/>
						<g>
							<path class="st7" d="M416.7,255.6c1.8-1,3.6-1.9,5.3-2.9c1.7-1,3.4-2.1,5.1-3.3c-1.3,1.6-3,2.8-4.7,3.9
								C420.6,254.3,418.7,255.2,416.7,255.6z"/>
						</g>
					</g>
				</g>
			</g>
			<g>
				<g>
					<path class="st19" d="M415.7,204.2c-0.2-3.1-0.6-6.3-1.7-9.1c-1.5-3.9-8.7-5.4-13.7-1.1c-0.2,0.1-0.3,0.3-0.4,0.4
						c-2,2.1-2.4,5.5-2.3,8.6c-0.1-0.1-0.2-0.1-0.3-0.1c-1-0.3-2,0.5-2.3,1.5c-0.2,0.8-0.1,1.6,0.4,2.3c0.4,0.6,0.9,1.1,1.6,1.3
						c0.2,0.1,0.9,0.2,1.4,0.1c0.5,2.2,1.6,4.2,3.3,5.7c2.2,1.8,5,2.5,7.7,2c2.2-0.4,5.4-1.8,6.1-4.1c0.2-0.6,0.2-1.2,0.2-1.8
						C415.8,208,415.8,206.1,415.7,204.2z"/>
					<g>
						<g>
							<g>
								<g>
									<path class="st7" d="M412.1,202.9c0,0.7,0.3,1.3,0.6,1.3s0.6-0.6,0.6-1.3c0-0.7-0.3-1.3-0.6-1.3S412.1,202.2,412.1,202.9z"
										/>
								</g>
								<g>
									<path class="st7" d="M407.9,202.9c0,0.7-0.3,1.3-0.6,1.3s-0.6-0.6-0.6-1.3c0-0.7,0.3-1.3,0.6-1.3S407.9,202.2,407.9,202.9z
										"/>
								</g>
							</g>
						</g>
						<g>
							<g>
								<path class="st7" d="M412.4,206.9c-0.2,0.4-0.6,0.8-1,1.1c-0.4,0.3-0.9,0.5-1.4,0.5c-0.5,0-1-0.2-1.4-0.5
									c-0.2-0.1-0.4-0.3-0.6-0.5c-0.2-0.2-0.3-0.4-0.4-0.6c0.2,0.1,0.4,0.3,0.6,0.4c0.2,0.1,0.4,0.3,0.6,0.4
									c0.4,0.2,0.8,0.4,1.3,0.4c0.4,0,0.9-0.1,1.3-0.3C411.7,207.5,412.1,207.2,412.4,206.9z"/>
								<path class="st7" d="M410.7,209.2c-0.2,0.2-0.4,0.2-0.7,0.2c-0.2,0-0.5-0.1-0.7-0.2c0.2,0,0.5,0.1,0.7,0.1
									C410.2,209.3,410.4,209.3,410.7,209.2z"/>
							</g>
						</g>
						<g>
							<g>
								<path class="st7" d="M408.4,198.4c-0.3-0.3-0.6-0.4-1-0.4c-0.4,0-0.7,0-1.1,0.1c-0.3,0.1-0.7,0.3-0.9,0.5
									c-0.3,0.2-0.5,0.5-0.6,0.8c-0.1,0.1,0,0.3,0.1,0.4c0.1,0.1,0.3,0,0.4,0l0,0c0.2-0.2,0.4-0.4,0.6-0.5
									c0.2-0.1,0.5-0.2,0.7-0.3c0.2-0.1,0.5-0.1,0.8-0.1c0.3,0,0.5,0,0.8,0l0.1,0c0.2,0,0.3-0.2,0.2-0.4
									C408.5,198.5,408.5,198.4,408.4,198.4z"/>
								<path class="st7" d="M411.6,198.4c0.3-0.3,0.6-0.4,1-0.4c0.4,0,0.7,0,1.1,0.1c0.3,0.1,0.7,0.3,0.9,0.5
									c0.3,0.2,0.5,0.5,0.6,0.8c0.1,0.1,0,0.3-0.1,0.4c-0.1,0.1-0.3,0-0.4,0l0,0c-0.2-0.2-0.4-0.4-0.6-0.5
									c-0.2-0.1-0.5-0.2-0.7-0.3c-0.2-0.1-0.5-0.1-0.8-0.1c-0.3,0-0.5,0-0.8,0l-0.1,0c-0.2,0-0.3-0.2-0.2-0.4
									C411.5,198.5,411.6,198.4,411.6,198.4z"/>
							</g>
						</g>
						<path class="st7" d="M411.3,200.8c0.1,0.5,0.2,1,0.3,1.5c0.1,0.5,0.2,1,0.3,1.4c0,0.1,0.1,0.2,0.1,0.3c0,0.1,0.1,0.3,0.1,0.4
							c0,0.3-0.2,0.6-0.5,0.8c-0.3,0.2-0.6,0.1-0.8,0c-0.3-0.1-0.5-0.2-0.7-0.4c0.5,0.2,1,0.3,1.3,0.1c0.2-0.1,0.3-0.3,0.2-0.5
							c0-0.1,0-0.2-0.1-0.3c0-0.1-0.1-0.2-0.1-0.4c-0.1-0.5-0.2-1-0.2-1.5C411.2,201.8,411.2,201.3,411.3,200.8z"/>
						<path class="st7" d="M395.8,205c0-0.3,0.1-0.6,0.3-0.9c0.3-0.2,0.7-0.2,1-0.1c0.3,0.1,0.6,0.3,0.8,0.6
							c0.2,0.3,0.4,0.5,0.5,0.8c0,0.1,0,0.2-0.1,0.3c-0.1,0-0.2,0-0.2,0l0,0c-0.2-0.2-0.5-0.4-0.7-0.5c-0.1,0-0.2,0-0.3,0
							c-0.1,0.1-0.2,0.2-0.2,0.3c-0.1,0.3-0.2,0.6,0.1,0.8c0.3,0.1,0.6,0.1,1,0.1c-0.3,0.1-0.7,0.3-1.1,0.1
							c-0.2-0.1-0.4-0.3-0.4-0.5c0-0.2,0-0.4,0.1-0.6c0.1-0.2,0.1-0.4,0.3-0.5c0.2-0.2,0.5-0.2,0.7-0.1c0.4,0.1,0.7,0.4,1,0.6
							l-0.4,0.2c-0.2-0.5-0.5-1-1-1.3c-0.2-0.1-0.5-0.2-0.7,0C396,204.4,395.9,204.7,395.8,205z"/>
					</g>
				</g>
				<g>
					<path class="st20" d="M399.6,194.1c0,0,1.7,1.8,2.8,2.2c0,0,0.6,3.5-2,7c0,0-0.7,1.4-0.6,2.4c0,0.1-0.1,0.2-0.2,0.1
						c-0.5-0.4-1.4-1.4-1.9-3C397.6,203,396.3,197.6,399.6,194.1z"/>
					<path class="st13" d="M407.4,197.2c0.6,1.2,1.6,2.1,2.7,2.8c0.5,0.3,1.1,0.6,1.7,0.6c0.6,0,1.4-0.4,1.5-1
						c0.3,0.5,0.4,1,0.5,1.6c0.1,0.6,0.1,1.1,0.2,1.7c0.1,0.5,0.3,1.1,0.9,1.3c0.4,0.1,0.9,0,1.2-0.3c0.3-0.3,0.6-0.7,0.7-1.1
						c0.6-1.4,0.5-3-0.1-4.3c0.9,0.1,1.7-0.9,1.8-1.8c0.1-0.9-0.3-1.8-0.8-2.6c-0.4-0.8-0.9-1.5-1.5-2.1c-0.7-0.6-1.5-0.9-2.3-0.8
						c0.2-0.3,0.4-0.6,0.5-1c0.1-0.4,0-0.7-0.2-1c-0.2-0.3-0.6-0.5-1-0.6c-0.4-0.1-0.8,0-1.2,0.1c-0.9,0.2-1.9,0.6-2.6,1.2
						c0.3-0.8-0.1-1.8-0.8-2.3c-0.7-0.5-1.6-0.6-2.5-0.4c-0.8,0.2-1.6,0.7-2.3,1.2c-1.9,1.5-3.5,3.5-4.4,5.8c1,1.2,2.1,2.5,3.5,3.2
						C404.4,198.2,406.2,198.2,407.4,197.2z"/>
				</g>
			</g>
		</g>
		<g>
			<path class="st4" d="M369.7,368c4.9-0.4,9.9-0.6,14.8-0.8c4.9-0.2,9.9-0.2,14.8-0.2c4.9,0,9.9,0.1,14.8,0.2
				c4.9,0.1,9.9,0.4,14.8,0.8c-4.9,0.4-9.9,0.6-14.8,0.8c-4.9,0.2-9.9,0.2-14.8,0.2c-4.9,0-9.9-0.1-14.8-0.2
				C379.5,368.6,374.6,368.4,369.7,368z"/>
		</g>
	</g>
	<g>
		<g>
			<g>
				<g>
					<path class="st21" d="M562,357.6l0,3.1l0,0.7l3.8,2.7l4.8-1.9c0,0,0-0.2,0.1-0.5c0.1-0.5,0.2-1.4,0.4-2.6
						C568,358.9,565,358.3,562,357.6z"/>
					<path class="st7" d="M582.8,367.9c0.6-0.8,0.4-2.1-0.4-2.6c-0.6-0.4-1.4-0.3-2.2-0.4c-1.4-0.1-2.8-0.6-4.1-1.2
						c-1.2-0.5-2.5-1-3.5-2c-0.5-0.4-0.9-1-1.4-1.3c-0.8-0.4-1.8-0.4-2.6,0.1c-0.8,0.4-1.4,1.2-1.6,2.1c-1.4,0.1-2.9-0.4-3.9-1.4
						c-0.2-0.2-0.5-0.5-0.7-0.7c-0.3-0.2-0.7-0.2-1,0c-0.3,0.2-0.3,0.7-0.4,1.1c0,1.1,0,2.2-0.1,3.3c0,0.9,0,2,0.8,2.5L582.8,367.9z
						"/>
				</g>
				<g>
					<path class="st21" d="M476.1,347.1l-6.5-0.1l-2.5,3.3l1.7,5.3c0,0,2.4,0.4,6.4,1C475.4,353.5,475.7,350.3,476.1,347.1z"/>
					<path class="st7" d="M463,367.5c0.8,0.6,2.1,0.4,2.6-0.4c0.4-0.6,0.3-1.4,0.4-2.2c0.1-1.4,0.6-2.8,1.2-4.1c0.5-1.2,1-2.5,2-3.5
						c0.4-0.5,1-0.9,1.3-1.4c0.4-0.8,0.4-1.8-0.1-2.6c-0.4-0.8-1.2-1.4-2.1-1.6c-0.1-1.4,0.4-2.9,1.4-3.9c0.2-0.2,0.5-0.5,0.7-0.7
						c0.2-0.3,0.2-0.7,0-1c-0.2-0.3-0.7-0.3-1.1-0.4c-1.1,0-2.2,0-3.3-0.1c-0.9,0-2,0-2.5,0.8L463,367.5z"/>
				</g>
				<g>
					<path class="st10" d="M518.8,297.3c0,0-5,10.3-5.6,18.4c-0.6,8.1-6,30.9-6,30.9l-35.9,0.3l-1.1,9.5c0,0,41.5,7.2,47.9,6.3
						c6.4-1,14.9-44.7,14.9-44.7l9.3-0.5l19.4,8.6l-0.5,33.4l10.2,0.2c0,0,7.1-41,6.3-43.4c-1.3-3.5-33.1-18.9-33.1-18.9
						L518.8,297.3z"/>
					<g>
						<g>
							<path class="st7" d="M534.2,301.3c0,2.8-0.2,5.6-0.3,8.4c0,1.4-0.2,2.8-0.2,4.2l-0.3,4.2l-0.6-0.3l5-4.7l-0.1,0.2l-0.1-4.7
								c0-1.6,0-3.1,0-4.7c0.2,1.6,0.3,3.1,0.4,4.7l0.3,4.7l0,0.1l-0.1,0.1l-4.9,4.8l-0.7,0.7l0.1-1l0.3-4.2
								c0.1-1.4,0.2-2.8,0.3-4.2C533.6,306.9,533.9,304.1,534.2,301.3z"/>
						</g>
						<g>
							<path class="st7" d="M506.5,349.6c0-1.1,0.3-2.2,0.6-3.2l0.1-0.4l0.4,0.2c0.8,0.4,1.6,0.8,2.4,1.4c-0.9-0.1-1.8-0.4-2.6-0.7
								l0.5-0.2C507.5,347.6,507.2,348.6,506.5,349.6z"/>
						</g>
						<g>
							<path class="st7" d="M561.4,326.1c-0.2-0.4-0.1-0.7,0-1c0.1-0.3,0.3-0.6,0.7-0.7c0.2,0.4,0.1,0.7,0,1
								C561.9,325.6,561.8,325.9,561.4,326.1z"/>
						</g>
						<g>
							<path class="st7" d="M562.6,326c-0.1-0.4-0.1-0.7,0.1-0.9c0.1-0.2,0.3-0.5,0.7-0.6c0.1,0.4,0.1,0.7-0.1,0.9
								C563.2,325.7,563,325.9,562.6,326z"/>
						</g>
						<g>
							<path class="st7" d="M538,313.3c4.3,1.8,8.7,3.7,13,5.6c4.3,1.9,8.6,3.9,12.9,5.8l0.2,0.1l0,0.2c-0.1,2.7-0.3,5.5-0.4,8.2
								l-0.4,8.2c-0.3,5.5-0.6,11-1.1,16.5c0.1-5.5,0.3-11,0.5-16.5l0.3-8.2c0.1-2.7,0.2-5.5,0.4-8.2l0.2,0.3c-4.3-2-8.6-3.9-12.8-6
								C546.5,317.4,542.3,315.4,538,313.3z"/>
						</g>
						<g>
							<path class="st7" d="M522.5,313.3c1.1,0,2.1,0.4,3,0.9c0.9,0.5,1.7,1.3,2.3,2.2c-0.9-0.5-1.8-1-2.6-1.5
								C524.2,314.4,523.4,313.9,522.5,313.3z"/>
						</g>
						<g>
							<path class="st7" d="M523.7,316c0.7,0,1.3,0.3,1.9,0.5c0.6,0.3,1.1,0.7,1.6,1.2c-0.7,0-1.3-0.3-1.9-0.5
								C524.7,316.9,524.2,316.6,523.7,316z"/>
						</g>
						<g>
							<path class="st7" d="M542.9,313.1c0.2-0.6,0.6-1.1,1.1-1.5c0.4-0.4,0.9-0.7,1.6-0.9c-0.2,0.6-0.6,1.1-1.1,1.5
								C544,312.6,543.5,312.9,542.9,313.1z"/>
						</g>
						<g>
							<path class="st7" d="M544.8,313.9c0-0.4,0.2-0.7,0.4-1c0.2-0.2,0.5-0.4,1-0.5c0,0.4-0.2,0.7-0.4,1
								C545.5,313.6,545.2,313.8,544.8,313.9z"/>
						</g>
					</g>
				</g>
			</g>
			<g>
				<g>
					<g>
						<path class="st21" d="M544.9,266.5c-2.5-1.6-4.2-2.1-5.3-3.6c-0.1-0.5-0.4-1.7-0.6-3c-0.2-1.2-0.3-2.5-0.2-3.6l0,0
							c0.1-0.5,0.2-1,0.4-1.3l-11.5-6.8c0,0,0,0.1,0,0.1c0.2,1.1,1.4,9.6-0.2,14c-0.9,0.4-2,0.6-3.3,0.7c-1.4,0-2.9,0.5-3.9,1.5
							c-1.5,1.3-2.8,3.9-2.1,8.7c1.4,9.7,2.7,18.4,1.9,24.3L544,298c0,0,0.5-9.5,1.4-16.5C546.2,275.2,548.7,268.9,544.9,266.5z"/>
						<path class="st7" d="M539,259.8c-6.3,0.6-9.4-7-9.5-7.3c1.1,1.9,2.8,2.9,4.4,3.3c2,0.6,4,0.5,4.8,0.4c0,0,0,0,0,0
							C538.7,257.3,538.8,258.6,539,259.8z"/>
					</g>
					<g>
						<path class="st5" d="M527.5,262.2l8.6,5.8l3.8-4.9l4.5,2.9c1.6,1,2.6,2.7,2.8,4.5c0.1,1.4,0.2,3,0,4.6
							c-0.6,3.6-1.6,21.6-0.6,23.3l-8.1,6.7l-4.4-4.3l-2.9,4.4l-11.5-6.3l-2.1,2.2c0,0,2-9,1.7-13.5c-0.4-4.5-2.4-24.2-2.4-24.2
							S522.2,261.8,527.5,262.2z"/>
						<polygon class="st22" points="536.1,268 539.9,263.1 541.5,269.7 						"/>
						<polygon class="st22" points="536.1,268 527.5,262.2 532.7,271.1 						"/>
						<g>
							<g>
								<path class="st7" d="M536.3,268.2c0,2.7-0.2,5.4-0.3,8.2c-0.1,2.7-0.3,5.4-0.5,8.1c-0.2,2.7-0.4,5.4-0.7,8.1
									c-0.2,2.7-0.5,5.4-0.9,8.1c0-2.7,0.2-5.4,0.3-8.2c0.1-2.7,0.3-5.4,0.5-8.1c0.2-2.7,0.4-5.4,0.7-8.1
									C535.7,273.6,535.9,270.9,536.3,268.2z"/>
							</g>
							<g>
								<path class="st7" d="M521,298.1c1.8,0.4,3.6,1.1,5.3,2c1.7,0.9,3.3,1.8,4.7,3.1c-1.7-0.7-3.4-1.6-5.1-2.4
									C524.3,299.9,522.6,299.1,521,298.1z"/>
							</g>
							<g>
								<path class="st7" d="M538.1,303.3c0.9-1.3,2-2.4,3.2-3.4c1.2-1,2.5-1.8,4-2.4c-1.1,1.1-2.4,2-3.5,3
									C540.6,301.4,539.4,302.4,538.1,303.3z"/>
							</g>
						</g>
					</g>
				</g>
				<g>
					<g>
						<path class="st21" d="M564.1,250.7c1.3,1.4,2.6,2.9,3.9,4.3c7.1-7.9,14.3-18,18.1-29.5l-3.7-2.1c0,0-11.5,12.4-22.3,23.5
							C561.5,248,562.8,249.3,564.1,250.7z"/>
						<path class="st21" d="M584.1,226.6c0,0,5.9-3.6,7.2-5.8c0.1-0.1,0-0.3-0.2-0.3c-0.3,0-1,0.3-2.4,1.3c0,0,2.2-2.9,2.1-3.6
							c-0.1-0.7-3.4,2.6-3.4,2.6s2.1-3.5,1.8-4.1c-0.3-0.5-3.2,3.1-3.2,3.1s2-3.8,1.6-3.9c-0.8-0.3-3.7,4.9-4.3,4.6
							c-0.5-0.3-0.3-1.8-0.1-2.5c0-0.2,0-0.3-0.2-0.3c-0.3,0-0.8,0-1.1,0.8c-0.4,1.2-1.3,3.7-0.8,7L584.1,226.6z"/>
					</g>
					<g>
						<g>
							<path class="st5" d="M539.9,263.1l20.5-16.9l8.6,8c0,0-2.8,4.6-3.7,5.5c-0.9,0.9-15.3,13.8-18.9,14.8
								C546.4,274.5,543.4,264.8,539.9,263.1z"/>
							<path class="st22" d="M563.2,250.9c1.3,1.5,2.9,2.9,4.8,3.8c0.3,0.1,0.7,0.3,1,0.2c0.3-0.1,0.7-0.4,0.6-0.7
								c0.2,0.2,0.6,0.1,0.7-0.2c0.1-0.2,0.1-0.5,0-0.8c-0.1-0.2-0.3-0.4-0.5-0.6c-2.5-2.2-5.1-4.3-7.8-6.4
								c-0.4-0.3-1.1-0.9-1.6-0.5c-0.6,0.4,0,1.1,0.3,1.5C561.3,248.5,562.2,249.7,563.2,250.9z"/>
						</g>
						<g>
							<path class="st7" d="M545.7,268.1c0.7,0.8,1.1,1.8,1.3,2.7c0.2,1,0.3,2,0,3c-0.3-1-0.5-1.9-0.7-2.9
								C546.1,270,545.9,269.1,545.7,268.1z"/>
						</g>
					</g>
				</g>
				<g>
					<path class="st21" d="M488.8,266c-12.9,0.9-24.8,1.6-25.4,1.7c0,0,0,0,0,0c-1.4,0.1-2.9-0.2-4.3-0.6c0.1,0.1,0.2,0.2,0.2,0.3
						c-0.3,0.2-3.1-1.2-3.8-0.4c-0.7,0.8-0.3,1.6-0.3,1.6c-0.9,1.2,0,1.9,0,1.9c-1.2,1.1,0.4,1.3,0.4,1.3s0.1,0.4,0.3,0.8
						c0.1,0.3,3.3,0.5,5.4,0.2c0.6-0.1,1.3-0.3,1.8-0.6c9.2,3.4,19.2,4.6,28.4,4.7C491,273.1,490.3,269.5,488.8,266z"/>
					<path class="st19" d="M455.5,266.8c0,0,3.5-0.1,4.2,0.1c0.7,0.2,3.2,4.8,3.3,5.1c0.2,0.3-0.8,0.1-1.5,0.2c0,0-0.4,0.7-1,0.8
						c0,0-0.6,0.9-1.5,0.9c0,0-0.2,0.3-1.2,0.3c-0.9,0-3.9-3.1-4.2-3.5C453.6,270.3,455.5,266.8,455.5,266.8z"/>
					<path class="st21" d="M458.7,266.7c0,0-2.9-0.6-3.4-0.6c-0.5,0-0.7,1.7,0.1,1.8c0.8,0.1,1.4-0.8,1.4-0.8L458.7,266.7z"/>
					<g>
						<g>
							<path class="st5" d="M520.7,262.5l-36.1,3.6c0,0,0.3,10.3,0.9,10.5c0.6,0.3,9.1,1.2,10.8,0.7c1.7-0.5,23-2.7,23-2.7
								S526.1,263.6,520.7,262.5z"/>
							<path class="st22" d="M484.1,265.5c-0.3,3.3-0.2,6.7,0.4,9.9c0.1,0.5,0.2,1,0.5,1.4c0.3,0.4,0.9,0.7,1.3,0.5
								c0.2,0.5,1.1,0.2,1.4-0.2c0.3-0.4,0.2-1,0.1-1.4c-0.5-3.2-1.1-6.3-1.9-9.4c-0.1-0.4-0.3-0.9-0.6-1.2
								C484.9,264.9,484.1,265.1,484.1,265.5z"/>
						</g>
						<g>
							<g>
								<path class="st7" d="M518.1,274.9c0.4-0.3,0.7-0.4,1.1-0.5c0.4,0,0.8,0,1.2,0.3c-0.4,0.3-0.7,0.4-1.1,0.5
									C518.8,275.2,518.5,275.2,518.1,274.9z"/>
							</g>
							<g>
								<path class="st7" d="M526.9,262.6c0.3,1.6,0,3.2-0.5,4.7c-0.5,1.5-1.4,2.9-2.5,4c0.7-1.4,1.3-2.8,1.8-4.2
									C526.2,265.6,526.6,264.2,526.9,262.6z"/>
							</g>
						</g>
					</g>
				</g>
			</g>
			<g>
				<g>
					<path class="st21" d="M543.8,235.8c-1.4-3.9-8.5-5.6-13.6-1.4c-2.4,2-2.9,5.6-2.9,8.9c-0.1-0.1-0.2-0.1-0.3-0.1
						c-1-0.3-2,0.5-2.4,1.4c-0.3,0.8-0.1,1.6,0.3,2.3c0.3,0.6,0.9,1.1,1.5,1.4c0.2,0.1,0.9,0.2,1.3,0.2c0.4,2.2,1.5,4.3,3.2,5.7
						c2.1,1.9,4.9,2.7,7.7,2.1c2.2-0.4,5.4-1.7,6.2-3.9c0.2-0.6,0.3-1.2,0.3-1.8C545.3,245.8,545.4,240.3,543.8,235.8z"/>
					<g>
						<g>
							<g>
								<g>
									<path class="st7" d="M541.7,243.6c0,0.7,0.3,1.3,0.6,1.3c0.4,0,0.7-0.6,0.7-1.3c0-0.7-0.3-1.3-0.6-1.3
										C542,242.3,541.7,242.9,541.7,243.6z"/>
								</g>
								<g>
									<path class="st7" d="M537.4,243.5c0,0.7-0.3,1.3-0.7,1.3c-0.4,0-0.6-0.6-0.6-1.3c0-0.7,0.3-1.3,0.7-1.3
										C537.2,242.2,537.5,242.8,537.4,243.5z"/>
								</g>
							</g>
						</g>
						<g>
							<g>
								<path class="st7" d="M541.9,247.6c-0.2,0.4-0.6,0.8-1,1.1c-0.4,0.3-0.9,0.5-1.4,0.4c-0.5,0-1-0.2-1.4-0.5
									c-0.2-0.1-0.4-0.3-0.5-0.5c-0.1-0.2-0.3-0.4-0.4-0.6c0.2,0.1,0.4,0.3,0.5,0.5c0.2,0.1,0.4,0.3,0.6,0.4
									c0.4,0.2,0.8,0.4,1.3,0.4c0.4,0,0.9-0.1,1.3-0.3C541.1,248.2,541.5,247.9,541.9,247.6z"/>
								<path class="st7" d="M540.1,249.9c-0.2,0.2-0.4,0.2-0.7,0.2c-0.2,0-0.5-0.1-0.7-0.2c0.2,0,0.5,0.1,0.7,0.1
									C539.6,249.9,539.9,249.9,540.1,249.9z"/>
							</g>
						</g>
						<g>
							<g>
								<path class="st7" d="M538.1,239c-0.3-0.3-0.6-0.4-1-0.4c-0.4,0-0.7,0-1.1,0.1c-0.3,0.1-0.7,0.3-0.9,0.5
									c-0.3,0.2-0.5,0.5-0.7,0.8c-0.1,0.1,0,0.3,0.1,0.4c0.1,0.1,0.3,0.1,0.4,0l0,0c0.2-0.2,0.4-0.4,0.6-0.5
									c0.2-0.1,0.5-0.2,0.7-0.3c0.2-0.1,0.5-0.1,0.8-0.1c0.3,0,0.5,0,0.8,0l0.1,0c0.2,0,0.3-0.2,0.2-0.4
									C538.2,239.1,538.1,239,538.1,239z"/>
								<path class="st7" d="M541.3,239c0.3-0.3,0.6-0.3,1-0.3c0.4,0,0.7,0.1,1.1,0.2c0.3,0.1,0.7,0.3,0.9,0.6
									c0.3,0.2,0.5,0.5,0.6,0.8c0.1,0.1,0,0.3-0.1,0.4c-0.1,0.1-0.3,0-0.4-0.1l0,0c-0.2-0.2-0.4-0.4-0.6-0.5
									c-0.2-0.1-0.5-0.2-0.7-0.3c-0.2-0.1-0.5-0.1-0.8-0.1c-0.3,0-0.5,0-0.8-0.1l-0.1,0c-0.2,0-0.3-0.2-0.2-0.4
									C541.2,239.1,541.2,239.1,541.3,239z"/>
							</g>
						</g>
						<path class="st7" d="M540.9,241.5c0.1,0.5,0.2,1,0.3,1.5c0.1,0.5,0.2,1,0.3,1.4c0,0.1,0.1,0.2,0.1,0.3c0,0.1,0.1,0.3,0.1,0.4
							c0,0.3-0.2,0.6-0.5,0.8c-0.3,0.1-0.6,0.1-0.8,0c-0.2-0.1-0.5-0.2-0.7-0.4c0.5,0.2,1,0.3,1.3,0.1c0.2-0.1,0.3-0.3,0.2-0.5
							c0-0.1,0-0.2-0.1-0.3c0-0.1-0.1-0.2-0.1-0.4c-0.1-0.5-0.2-1-0.2-1.5C540.8,242.5,540.8,242,540.9,241.5z"/>
						<path class="st7" d="M525.3,245.2c0-0.3,0.1-0.6,0.4-0.9c0.3-0.2,0.7-0.2,1-0.1c0.3,0.1,0.6,0.3,0.8,0.6
							c0.2,0.3,0.4,0.5,0.5,0.8c0,0.1,0,0.2-0.1,0.3c-0.1,0-0.2,0-0.2-0.1l0,0c-0.2-0.2-0.5-0.5-0.7-0.5c-0.1,0-0.2,0-0.3,0
							c-0.1,0.1-0.2,0.2-0.2,0.3c-0.1,0.3-0.2,0.6,0,0.8c0.3,0.2,0.6,0.1,1,0.1c-0.3,0.1-0.7,0.2-1.1,0.1c-0.2-0.1-0.4-0.3-0.4-0.5
							c0-0.2,0-0.4,0.1-0.6c0.1-0.2,0.1-0.4,0.3-0.5c0.2-0.2,0.5-0.2,0.7-0.1c0.4,0.1,0.7,0.4,0.9,0.7l-0.4,0.2
							c-0.2-0.5-0.5-1-1-1.3c-0.2-0.1-0.5-0.2-0.7-0.1C525.5,244.7,525.4,244.9,525.3,245.2z"/>
					</g>
				</g>
				<path class="st0" d="M546,237.5c0.8-0.8,1.1-2,0.8-3.1c-0.3-1.1-1.2-1.9-2.3-2.4c-1.1-0.4-2.4-0.5-3.4-0.1
					c-1.3-2.4-4.4-3.6-7.1-3c-2.7,0.7-4.7,3.1-5.4,5.8c-2-0.3-4,1-4.9,2.8c-0.9,1.8-0.5,4.2,0.2,6.1c-1.3,1.3-1.9,3.4-1.4,5.2
					c0.5,1.8,1.9,3.4,3.7,3.9c-0.4,0.8-0.4,1.9,0.1,2.7c0.4,0.8,1.3,1.3,2.1,1.2c0.1-3.6-0.4-7.2-0.6-8.2c-0.5,0-1.2-0.1-1.3-0.2
					c-0.6-0.3-1.2-0.8-1.5-1.4c-0.4-0.7-0.6-1.5-0.3-2.3c0.3-0.9,1.3-1.6,2.2-1.4c0.4,0.3,0.7,0.7,1,1.1c0.5,0.7,0.9,1.5,1.6,2
					c0.6,0.6,1.6,0.9,2.4,0.6c-0.6-0.3-0.8-1-0.6-1.7c0.1-0.6,0.5-1.2,0.7-1.8c0.4-1.1,0.4-2.3,0-3.3c0.7-0.1,1.2-0.5,1.6-1
					c0.4-0.5,0.6-1.2,0.5-1.9c0.6,1.6,2.1,2.8,3.8,2.9c1.7,0.2,3.5-0.7,4.4-2.2c-0.3,0.9-0.1,1.7,0.4,2.4c0.6,0.7,1.5,1.1,2.4,1.1
					c-0.1,0.6-0.4,1.2-0.3,1.9c0,0.7,0.2,1.3,0.7,1.8c0,0,0-0.1,0-0.1c0,0,0,0,0,0.1c0.5-0.7,0.7-1.5,0.4-2.2
					c0.9-0.5,1.5-1.5,1.7-2.5C547.4,239.3,546.8,238.2,546,237.5z"/>
			</g>
		</g>
		<g>
			<path class="st4" d="M459.7,368c10.5-0.4,21-0.6,31.5-0.8c10.5-0.2,21-0.2,31.5-0.2c10.5,0,21,0.1,31.5,0.2
				c10.5,0.1,21,0.4,31.5,0.8c-10.5,0.4-21,0.6-31.5,0.8c-10.5,0.2-21,0.2-31.5,0.2c-10.5,0-21-0.1-31.5-0.2
				C480.6,368.6,470.2,368.4,459.7,368z"/>
		</g>
	</g>
	<g>
		<g>
			<g>
				<g>
					<path class="st23" d="M668.1,365.2c-4.7,0.6-10.7-3.3-11.5-3.9c0.3-1.8,1.3-7.1,2.5-14.3c-3.9-0.5-7.9-1-11.8-1.6l0.5,13.8
						c-0.6,2.2-1.4,5.9-1.3,6.7c0.1,0.7,0.8,1.3,1.5,1.3h20.2c0.2,0,0.5-0.1,0.6-0.3c0.5-0.6,0.3-1.1,0.1-1.4
						C668.6,365.3,668.3,365.2,668.1,365.2z"/>
					<path class="st7" d="M646.1,364.9l14.2,1c0,0-0.3-2.4,1.3-2.6c1.6-0.2,5.1,0.9,6.7,1.6c0.5,0.3,1.8,1,0.3,2.3h-21.9
						c-0.3,0-0.6-0.2-0.7-0.4C645.8,366.4,645.7,365.7,646.1,364.9z"/>
				</g>
				<g>
					<path class="st23" d="M640.5,363.4c-2.9-2.1-5.3-5.5-6-6.6l3.8-8.5c-0.9-0.2-1.7-0.4-2.6-0.6c-2.8-0.6-5.7-1.2-8.5-2
						c-1,4.2-1.6,6.9-1.8,7.5c0,0,0,0,0,0c-1.2,1.5-1.9,3.4-2.1,4.3c-0.2,0.7,0.2,1.5,0.9,1.8l15.6,6.3
						C639.9,364.8,640.1,364,640.5,363.4z"/>
					<path class="st7" d="M623.2,358.2l13.1,5.8c0,0,0.5-2.4,2.1-2c1.6,0.3,4.5,2.6,5.8,3.8c0.4,0.4,1.3,1.6-0.5,2.3l-20.6-7.4
						c-0.3-0.1-0.5-0.3-0.5-0.6C622.5,359.5,622.5,358.8,623.2,358.2z"/>
				</g>
			</g>
			<g>
				<g>
					<g>
						<g>
							<path class="st23" d="M681.7,222.9L681.7,222.9l-3.4-2.1c0,0-0.2,0.3-0.5,0.9c-1.4,2.4-5.6,9.3-10.5,17.2
								c-0.7-1.8-1.4-3.4-2-4.9c-1-2.8-2.2-4.9-3.3-6.5c-4-5.8-12.3-4.5-13.1,2.2c-0.3,2.5,0.1,5.6,1.9,9.6c1.8,3.8,4.1,9,7.1,14.5
								c0.7,1.4,1.5,2.8,2.4,4.2c2.8,4.7,9.7,4.4,12.1-0.5c0.5-1.1,1.1-2.2,1.6-3.3C678.5,244.7,682.1,233.6,681.7,222.9z"/>
						</g>
						<g>
							<path class="st7" d="M664,249.1c-0.2-1.8,0-3.7,0.6-5.5c0.6-1.8,1.5-3.4,2.8-4.8c-0.8,1.7-1.5,3.3-2.1,5
								C664.8,245.6,664.4,247.3,664,249.1z"/>
						</g>
					</g>
					<g>
						<g>
							<path class="st0" d="M676.9,213c0,0,1.4,9,6.9,10.8c0.1,0,0.2,0,0.3,0c0.6-0.4,3-2.1,3.9-4.1c0.1-0.2,0-0.3-0.1-0.4
								c-1.3-0.8-7.1-4.3-7.5-7.4L676.9,213z"/>
							<path class="st0" d="M678.7,203c0,0,7.6-1.9,13.3-11.3l6.1,22.5c0,0-7.8-4.1-16.9-1.4L678.7,203z"/>
							<path class="st24" d="M696.9,202.4c1.7,6.2,2.2,11.5,1.2,11.8c-0.8,0.2-2.3-2.5-3.7-6.6c-0.4-1.3-0.9-2.7-1.3-4.2
								c-0.4-1.5-0.7-2.9-1-4.2c-0.8-4.2-1-7.3-0.2-7.5C693,191.4,695.2,196.2,696.9,202.4z"/>
							<path class="st6" d="M682.5,212.6l-4.9,1.3c-1.7,0.5-3.4-0.5-3.9-2.2l-1.1-4.1c-0.5-1.7,0.5-3.4,2.2-3.9l4.9-1.3L682.5,212.6
								z"/>
							<path class="st6" d="M673.8,210.4l-0.9,0.2c-0.3,0.1-0.7-0.1-0.8-0.5l-0.1-0.5c-0.1-0.3,0.1-0.7,0.5-0.8l0.9-0.2L673.8,210.4
								z"/>
							<path class="st6" d="M695.3,202.8c0.7,2.4,0.5,4.6-0.4,4.8c-0.2,0-0.3,0-0.5-0.1c-0.4-1.3-0.9-2.7-1.3-4.2
								c-0.4-1.5-0.7-2.9-1-4.2c0.1-0.2,0.2-0.3,0.4-0.3C693.4,198.6,694.7,200.4,695.3,202.8z"/>
						</g>
						<path class="st23" d="M681.9,222.8c0,0-0.9-1-1.6-1.7c0.1-1.3-1.5-3.1-1.5-3.1s0.8-2.7-0.7-1.9c-1.5,0.8-0.3,5.6-0.3,5.6
							c0.3,0.2,0.6,0.2,0.9,0.3l3.1,0.9L681.9,222.8z"/>
						<path class="st23" d="M680,217.6c0-1,0.4-2,1-2.9c0.3-0.5,0.7-0.8,1.1-0.7c0.8,0.2,0.7,0.8,0.7,0.8s1.4-0.2,1.3,1
							c0,0,1.3,0.2,1.4,1.1c0,0,0.9,0.8,0.9,1.1s-1.9,1.9-2.2,1.9c-0.3,0-0.1-1.3-0.1-1.3s-1,1.3-1.3,1.2c-0.3-0.2,0.2-2.3,0.2-2.3
							s-1.5,2-1.8,1.6c-0.3-0.4,0.4-2.7,0.4-2.7s-1.2,2.1-1.5,1.9C680.1,218.3,680,218,680,217.6z"/>
					</g>
				</g>
				<g>
					<g>
						<path class="st23" d="M656.5,235.7c-0.6-4.3-2-8.5-1.9-12.9c0-0.2,0-0.3,0-0.5c-0.7-0.4-1.2-0.8-1.7-1.3
							c-0.1-0.4-0.2-0.9-0.3-1.4c-0.2-1.2-0.4-2.5-0.3-3.6v0c0-0.5,0.2-1,0.4-1.3l-11.6-6.5c0,0,0,0.1,0,0.1c0.2,1,1.4,8.3,0.4,13
							c-1,0.4-2.2,0.7-3.8,0.8c-1.5,0.1-3,0.5-4.1,1.3c-1.7,1.1-3.3,3.3-3,7.5c0.6,9.4,4.6,18.9,3.1,26.4l18.8,0.2
							c0-0.3,0.1-0.5,0.1-0.8c1.4-5.8,2.8-11.7,4.2-17.5c0,0,0,0,0,0C656.7,238,656.6,236.9,656.5,235.7z"/>
						<path class="st25" d="M652.6,219.6c-6.3,0.8-9.5-6.7-9.6-7c1.2,1.9,2.9,2.8,4.5,3.2c2,0.6,4,0.4,4.8,0.2c0,0,0,0,0,0
							C652.3,217.1,652.4,218.4,652.6,219.6z"/>
					</g>
					<g>
						<g>
							<path class="st0" d="M666.2,274.2c0-0.2,0-0.4,0-0.7c-0.5-9.5-4.6-18.8-4.6-18.8s2.8-17.1,2.6-19.6c-0.1-1.4-1.5-4.4-2.8-6.9
								c-1.1-2.1-2.8-3.8-4.9-4.8c-2-1-3.4-2.3-3.4-2.3c0.8,4.8-1.4,17.2-1.4,17.2l-0.5-1.5c-1.6-4.8-4.1-9.2-7.4-13l-2.5-2.8
								c0,0-3.2,0.5-6.5,1.2s-7.6,8-5.6,11.1c1.4,2.2,2.8,12.4,3.4,18.1c0.3,2.2-0.3,4.5-1.7,6.2c-4.7,5.8-6.3,14.3-6.8,19.6
								c0,0,0,0,0,0c-0.2,0.3-0.2,1.3-0.2,2.3c0,2.2,0.3,4.4,0.8,6.6c1.5,6.2,4.7,18.3,9,26.7c-0.4,1.9-1.8,4.2-2.5,6
								c-1.3,3.5-2.7,6.8-3.4,10.5c-0.6,3.2-1.1,6.3-1.1,9.5c0,1.4-0.1,2.8-0.4,4.1c-0.2,0.9-1,1.7-1,2.6c4.1,3.3,9.5,4.6,14.7,3.7
								c0,0,3.1-7,6.4-14.9c0.4,4.5,0.2,9.1-1.2,13.3c4.4,2.5,10.3,3.4,15.2,2.3c2.3-13.1,5.5-26,7.1-39.2
								C669.2,298.7,669.3,286.1,666.2,274.2z"/>
							<g>
								<g>
									<g>
										<path class="st7" d="M639.8,222.2c2.2,2.3,4.2,4.9,6,7.6c1.8,2.7,3.3,5.6,4.6,8.5c0.2,0.4,0.3,0.7,0.5,0.9
											c0.2,0.1,0.3,0.1,0.5-0.1c0.2-0.2,0.3-0.6,0.5-1c0.2-0.4,0.3-0.7,0.4-1.1c0.6-1.5,1-3,1.4-4.6c0.7-3.1,0.9-6.3,0.8-9.5
											c0.5,3.2,0.4,6.5-0.2,9.7c-0.3,1.6-0.7,3.2-1.3,4.7c-0.1,0.4-0.3,0.8-0.4,1.1c-0.2,0.4-0.3,0.8-0.6,1.2
											c-0.1,0.2-0.4,0.4-0.7,0.5c-0.3,0.1-0.6,0-0.9-0.2c-0.4-0.3-0.6-0.8-0.8-1.1c-1.3-2.9-2.8-5.8-4.4-8.5
											C643.6,227.4,641.8,224.7,639.8,222.2z"/>
									</g>
									<g>
										<path class="st7" d="M633,259c0.1,1.5,0,3.1-0.2,4.7c-0.3,1.5-0.8,3-1.4,4.5c-0.7,1.4-1.5,2.8-2.5,4
											c-0.5,0.6-1,1.2-1.7,1.7c-0.7,0.4-1.7,0.6-2.3,0c0.7,0.4,1.5,0.2,2-0.3c0.6-0.5,1-1.1,1.4-1.7c0.9-1.3,1.6-2.6,2.3-3.9
											c0.6-1.4,1.1-2.8,1.5-4.3C632.6,262,632.8,260.5,633,259z"/>
									</g>
								</g>
								<g>
									<g>
										<path class="st7" d="M646.9,333.6c0.2-1.1,0.7-2.2,1.1-3.2l1.3-3.2l2.6-6.3c0.9-2.1,1.8-4.2,2.6-6.3
											c0.4-1.1,0.9-2.1,0.8-3.1c0-1.1-0.2-2.2-0.3-3.3c-0.6-4.5-1.4-8.9-2.2-13.4l-2.5-13.4c1.1,4.4,2.1,8.8,3.1,13.3
											c0.9,4.4,1.8,8.9,2.4,13.4c0.1,1.1,0.3,2.3,0.3,3.4c0,1.3-0.5,2.3-0.9,3.4c-0.9,2.1-1.8,4.2-2.7,6.3l-2.8,6.2l-1.4,3.1
											l-0.7,1.6C647.2,332.6,646.9,333.1,646.9,333.6z"/>
									</g>
									<g>
										<path class="st7" d="M634,312.6c0.1-0.1,0.1-0.3,0.2-0.4l0.1-0.5c0-0.2,0.1-0.3,0.1-0.5c0-0.2,0-0.3,0.2-0.6l0.6,0.4
											c-0.2,0.5-0.4,1.1-0.4,1.5c0,0.2,0.2,0.4,0.4,0.6c0.2,0.2,0.4,0.4,0.7,0.5c-0.3,0-0.6,0-1-0.2c-0.3-0.1-0.6-0.4-0.7-0.8
											c-0.1-0.4-0.1-0.8,0-1.1c0.1-0.3,0.2-0.6,0.4-0.9l0.6,0.4c0,0-0.1,0.2-0.2,0.4c-0.1,0.2-0.1,0.3-0.2,0.5
											c-0.1,0.2-0.2,0.3-0.3,0.4C634.3,312.4,634.2,312.6,634,312.6z"/>
									</g>
									<g>
										<path class="st7" d="M627.1,344.7c1.9,0.9,3.8,1.6,5.7,2.2c2,0.6,3.9,1,6,1.4c-2.1,0.2-4.2-0.1-6.2-0.7
											C630.6,347,628.7,346,627.1,344.7z"/>
									</g>
									<g>
										<path class="st7" d="M635.7,274.7c1.3,0.3,2.4,0.9,3.5,1.5c1.1,0.7,2.1,1.5,3,2.4c-1.2-0.5-2.3-1.2-3.4-1.8
											C637.8,276.2,636.7,275.5,635.7,274.7z"/>
									</g>
									<g>
										<path class="st7" d="M638,278.1c0.9,0.1,1.7,0.5,2.4,0.8c0.7,0.4,1.5,0.8,2.1,1.5c-0.9-0.1-1.7-0.5-2.4-0.8
											C639.4,279.2,638.6,278.8,638,278.1z"/>
									</g>
								</g>
								<g>
									<g>
										<path class="st7" d="M646,346.8c2.2,0.9,4.4,1.5,6.6,1.8c2.3,0.3,4.6,0.2,6.9-0.1c-2.2,0.9-4.6,1.1-7,0.8
											C650.2,349.1,647.9,348.2,646,346.8z"/>
									</g>
									<g>
										<path class="st7" d="M662.4,259.2c-0.2,1.4-0.3,2.7-0.3,4.1c0,1.4,0.1,2.7,0.4,4c0.2,1.3,0.6,2.6,1.1,3.9
											c0.2,0.6,0.5,1.3,0.8,1.8c0.3,0.6,0.8,1.1,1.5,1.3c-0.7-0.1-1.3-0.6-1.8-1.1c-0.4-0.6-0.8-1.2-1.1-1.8
											c-0.6-1.3-1-2.6-1.3-4c-0.2-1.4-0.3-2.8-0.2-4.2C661.6,261.9,661.9,260.5,662.4,259.2z"/>
									</g>
									<g>
										<path class="st7" d="M650.7,283.8c0.1-0.7,0.3-1.3,0.6-1.9c0.3-0.6,0.7-1.1,1.3-1.6c-0.1,0.7-0.3,1.3-0.6,1.9
											C651.6,282.8,651.2,283.3,650.7,283.8z"/>
									</g>
									<g>
										<path class="st7" d="M655.5,279c0.6-0.9,1.3-1.7,2.1-2.4c0.8-0.7,1.6-1.3,2.6-1.8c-0.6,0.9-1.3,1.7-2.1,2.4
											C657.3,277.9,656.5,278.5,655.5,279z"/>
									</g>
								</g>
							</g>
						</g>
					</g>
				</g>
				<g>
					<path class="st6" d="M656.2,271.5l-15.3-3c-0.5-0.1-0.8-0.6-0.7-1l4.6-23.3c0.1-0.5,0.6-0.8,1-0.7l15.3,3
						c0.5,0.1,0.8,0.6,0.7,1l-4.6,23.3C657.2,271.2,656.7,271.5,656.2,271.5z"/>
					<g>
						<g>
							<path class="st23" d="M631.7,246.2c2-2.8,3.8-5.3,5.4-7.3c1.8-2.3,3-4.4,3.9-6.2c2.9-6.5-2.5-12.8-8.7-10.1
								c-2.3,1-4.8,3-7.2,6.6c-1.8,2.7-4.2,6.2-6.6,10.1c-0.7,1.2-1.5,2.4-2.2,3.7c-2.7,4.7-0.3,10.6,4.8,12.2
								c1.2,0.4,2.4,0.7,3.6,1.1c7.5,2,15.4,3.1,22.9,2.2l1.8-3.6C649.4,254.9,641.4,251,631.7,246.2z"/>
							<path class="st23" d="M647,257.9c0,0,4.9,4.8,7.4,5.6c0.2,0,0.3-0.1,0.2-0.2c-0.1-0.3-0.5-0.9-1.9-2c0,0,3.4,1.4,4,1.2
								c0.6-0.2-3.4-2.7-3.4-2.7s3.9,1.2,4.4,0.8c0.4-0.4-3.8-2.3-3.8-2.3s4.1,1,4.2,0.7c0.1-0.9-5.7-2.4-5.5-3
								c0.2-0.5,1.7-0.7,2.4-0.7c0.2,0,0.3-0.1,0.3-0.3c0-0.3-0.2-0.8-1-0.9c-1.2-0.1-3.9-0.4-6.9,0.9L647,257.9z"/>
						</g>
						<g>
							<path class="st7" d="M623.3,243.7c1.5-0.1,2.9,0.1,4.4,0.5c1.4,0.4,2.8,1,4,1.9c-1.4-0.4-2.8-0.8-4.2-1.2
								C626.1,244.6,624.7,244.2,623.3,243.7z"/>
						</g>
					</g>
				</g>
			</g>
			<g>
				<g>
					<path class="st23" d="M658.6,205.5c-0.1-3.4-0.5-6.9-1.7-10c-1.5-3.9-8.7-5.4-13.7-1.1c-2.3,2-2.8,5.7-2.7,9
						c-0.1-0.1-0.2-0.1-0.3-0.1c-1-0.3-2,0.5-2.3,1.5c-0.2,0.8-0.1,1.6,0.4,2.3c0.4,0.6,0.9,1.1,1.6,1.3c0.2,0.1,0.9,0.2,1.4,0.1
						c0.5,2.2,1.6,4.2,3.3,5.7c2.2,1.8,5,2.5,7.7,2c2.2-0.4,5.4-1.8,6.1-4.1c0.2-0.6,0.2-1.2,0.2-1.8v-0.4
						C658.6,208.4,658.6,206.9,658.6,205.5z"/>
					<g>
						<g>
							<path class="st25" d="M658.6,209.7c-0.2,0.1-0.4,0.1-0.6,0.1c-1.2,0-2.2-1-2.2-2.2c0-1.2,1-2.2,2.2-2.2c0.2,0,0.3,0,0.5,0.1
								C658.6,206.9,658.6,208.4,658.6,209.7z"/>
							<path class="st25" d="M644.8,207.6c0,1.2,1,2.2,2.2,2.2c1.2,0,2.2-1,2.2-2.2c0-1.2-1-2.2-2.2-2.2
								C645.8,205.4,644.8,206.4,644.8,207.6z"/>
						</g>
						<g>
							<g>
								<g>
									<path class="st7" d="M654.6,203.3c0,0.7,0.3,1.3,0.6,1.3c0.4,0,0.6-0.6,0.6-1.3c0-0.7-0.3-1.3-0.6-1.3
										C654.9,202,654.6,202.6,654.6,203.3z"/>
									<path class="st7" d="M656.6,201.6c-0.1,0.2-0.3,0.4-0.4,0.6c-0.2,0.2-0.4,0.3-0.7,0.3l0,0c-0.1,0-0.3-0.1-0.3-0.2
										s0.1-0.3,0.2-0.3c0,0,0,0,0.1,0c0.4,0,0.8-0.2,1-0.5l0,0C656.5,201.5,656.5,201.5,656.6,201.6
										C656.6,201.5,656.6,201.5,656.6,201.6z"/>
								</g>
								<g>
									<path class="st7" d="M650.4,203.3c0,0.7-0.3,1.3-0.6,1.3s-0.6-0.6-0.6-1.3c0-0.7,0.3-1.3,0.6-1.3S650.4,202.6,650.4,203.3z
										"/>
									<path class="st7" d="M648.6,201.5c0.3,0.3,0.7,0.5,1,0.5c0.1,0,0.2,0.1,0.2,0.2c0,0.1-0.1,0.2-0.2,0.2c0,0,0,0-0.1,0l0,0
										c-0.3-0.1-0.5-0.2-0.7-0.3c-0.2-0.2-0.3-0.3-0.4-0.6C648.4,201.5,648.4,201.5,648.6,201.5
										C648.5,201.5,648.5,201.5,648.6,201.5L648.6,201.5z"/>
								</g>
							</g>
						</g>
						<g>
							<g>
								<path class="st7" d="M654.9,207.3c-0.2,0.4-0.6,0.8-1,1.1c-0.4,0.3-0.9,0.5-1.4,0.5c-0.5,0-1-0.2-1.4-0.5
									c-0.2-0.1-0.4-0.3-0.6-0.5c-0.2-0.2-0.3-0.4-0.4-0.6c0.2,0.1,0.4,0.3,0.6,0.4c0.2,0.1,0.4,0.3,0.6,0.4
									c0.4,0.2,0.8,0.4,1.3,0.4c0.4,0,0.9-0.1,1.3-0.3C654.2,207.9,654.6,207.6,654.9,207.3z"/>
								<path class="st7" d="M653.2,209.6c-0.2,0.2-0.4,0.2-0.7,0.2c-0.2,0-0.5-0.1-0.7-0.2c0.2,0,0.5,0.1,0.7,0.1
									C652.7,209.7,653,209.6,653.2,209.6z"/>
							</g>
						</g>
						<g>
							<g>
								<path class="st7" d="M650.9,198.8c-0.3-0.3-0.6-0.4-1-0.4c-0.4,0-0.7,0-1.1,0.2c-0.3,0.1-0.7,0.3-0.9,0.5
									c-0.3,0.2-0.5,0.5-0.6,0.8c-0.1,0.1,0,0.3,0.1,0.4c0.1,0.1,0.3,0,0.4,0l0,0c0.2-0.2,0.4-0.4,0.6-0.5
									c0.2-0.1,0.5-0.2,0.7-0.3c0.2-0.1,0.5-0.1,0.8-0.1c0.3,0,0.5,0,0.8,0l0.1,0c0.2,0,0.3-0.2,0.2-0.4
									C651,198.9,651,198.8,650.9,198.8z"/>
								<path class="st7" d="M654.1,198.8c0.3-0.3,0.6-0.4,1-0.4c0.4,0,0.7,0,1.1,0.2c0.3,0.1,0.7,0.3,0.9,0.5
									c0.3,0.2,0.5,0.5,0.6,0.8c0.1,0.1,0,0.3-0.1,0.4c-0.1,0.1-0.3,0-0.4,0l0,0c-0.2-0.2-0.4-0.4-0.6-0.5
									c-0.2-0.1-0.5-0.2-0.7-0.3c-0.2-0.1-0.5-0.1-0.8-0.1c-0.3,0-0.5,0-0.8,0l-0.1,0c-0.2,0-0.3-0.2-0.2-0.4
									C654,198.9,654.1,198.8,654.1,198.8z"/>
							</g>
						</g>
						<path class="st7" d="M652.7,201.3c0.1,0.5,0.2,1,0.3,1.5c0.1,0.5,0.2,1,0.3,1.4c0,0.1,0.1,0.2,0.1,0.3c0,0.1,0.1,0.3,0.1,0.4
							c0,0.3-0.2,0.6-0.5,0.8c-0.3,0.2-0.6,0.1-0.8,0c-0.3-0.1-0.5-0.2-0.7-0.4c0.5,0.2,1,0.3,1.3,0.1c0.2-0.1,0.3-0.3,0.2-0.5
							c0-0.1,0-0.2-0.1-0.3c0-0.1-0.1-0.2-0.1-0.4c-0.1-0.5-0.2-1-0.2-1.5C652.6,202.3,652.6,201.8,652.7,201.3z"/>
						<path class="st7" d="M638.7,205.4c0-0.3,0.1-0.6,0.3-0.9c0.3-0.2,0.7-0.2,1-0.1c0.3,0.1,0.6,0.3,0.8,0.6
							c0.2,0.3,0.4,0.5,0.5,0.8c0,0.1,0,0.2-0.1,0.3c-0.1,0-0.2,0-0.2,0l0,0c-0.2-0.2-0.5-0.4-0.7-0.5c-0.1,0-0.2,0-0.3,0
							c-0.1,0.1-0.2,0.2-0.2,0.3c-0.1,0.3-0.2,0.6,0.1,0.8c0.3,0.1,0.6,0.1,1,0.1c-0.3,0.1-0.7,0.3-1.1,0.1
							c-0.2-0.1-0.4-0.3-0.4-0.5c0-0.2,0-0.4,0.1-0.6c0.1-0.2,0.1-0.4,0.3-0.5c0.2-0.2,0.5-0.2,0.7-0.1c0.4,0.1,0.7,0.4,1,0.6
							l-0.4,0.2c-0.2-0.5-0.5-1-1-1.3c-0.2-0.1-0.5-0.2-0.7,0C638.9,204.9,638.7,205.2,638.7,205.4z"/>
					</g>
				</g>
				<path class="st10" d="M667.7,228.1C667.7,228.1,667.7,228.1,667.7,228.1c-0.5-2.5-1.5-4.8-1.7-7.2c-0.2-2.5,0.5-5.1,0-7.5
					c-0.6-2.7-2.6-4.9-4.3-7.1c-1.7-2.2-3.7-5.1-2.8-7.7c0.4-1.3,0.5-2.8-0.1-4.1c-2.2-5-7.6-6-11.9-4.5c-2.9,1-5.3,3.1-7.4,5.3
					c-0.4-0.2-1-0.1-1.3,0.3c-0.3,0.3-0.4,1-0.4,1.5c0.2,3-0.8,6.1-2.7,8.4c-1.3,1.6-3,2.8-4.1,4.6c-1.1,1.8-1.2,4.3,0.4,5.6
					c-2,2.4-3.1,5.8-3,9c0,0.2,0,0.4,0,0.5c1.3-1.2,2.6-2,3.8-2.6c1.5-0.7,2.9-0.8,4.2-0.5c2.7-0.6,5-0.9,5-0.9l0.2,0.2
					c0.9-4.5-0.2-11.4-0.4-12.8c-0.5,0-1.2-0.1-1.3-0.1c-0.6-0.2-1.2-0.8-1.6-1.3c-0.4-0.7-0.6-1.5-0.4-2.3c0.3-1,1.3-1.7,2.3-1.5
					c0.1,0,0.1,0.1,0.2,0.1c0,0.1,0.1,0.2,0.1,0.3c0.2,0.4,0.4,0.7,0.8,0.8c0.5,0.2,1.1-0.1,1.4-0.6c0.3-0.4,0.4-1,0.4-1.5
					c0.4,0.2,0.9,0.1,1.3-0.2c0.4-0.3,0.6-0.7,0.8-1.1c0.5-1.2,0.6-2.5,0.2-3.7c1.7-0.3,3.3-0.7,5-0.7c1.7,0,3.4,0.3,4.9,1.1
					c1.4,0.8,2.5,2.1,2.9,3.6c0.2,1.3,0.3,2.7,0.3,4c0.1,1.5,0.1,2.9,0,4.3v0.4c0,0.6,0,1.2-0.2,1.8c-0.8,2.2-3.8,3.6-6,4v0
					c-0.1,1,0,2.3,0.2,3.6c0.1,0.5,0.2,1,0.3,1.4c0.1,0.1,0.2,0.2,0.3,0.3c0-0.1,0-0.1,0-0.2c0,0,1.5,1.3,3.4,2.3
					c0.5,0.3,1.1,0.6,1.5,0.9c0,0,0,0,0,0c1.5,0.6,2.8,1.6,3.9,3.2c1.1,1.6,2.2,3.7,3.2,6.3C667,232.6,668.2,230.4,667.7,228.1z"/>
			</g>
		</g>
		<g>
			<path class="st4" d="M615.9,368c4.8-0.4,9.6-0.6,14.4-0.8c4.8-0.2,9.6-0.2,14.4-0.2c4.8,0,9.6,0.1,14.4,0.2
				c4.8,0.1,9.6,0.4,14.4,0.8c-4.8,0.4-9.6,0.6-14.4,0.8c-4.8,0.2-9.6,0.2-14.4,0.2c-4.8,0-9.6-0.1-14.4-0.2
				C625.5,368.6,620.7,368.4,615.9,368z"/>
		</g>
	</g>
</g>
<g id="DESIGNED_BY_FREEPIK">
</g>
</svg>
